Boeticher-Normal.ufo
<glyph name="E" format="1">
  <advance width="347"/>
  <unicode hex="0045"/>
  <note>
    E
  </note>
  <outline>
    <contour>
      <point x="279" y="155"/>
      <point x="267" y="143"/>
      <point x="267" y="127" type="curve" smooth="yes"/>
      <point x="267" y="89"/>
      <point x="236" y="59"/>
      <point x="198" y="59" type="curve" smooth="yes"/>
      <point x="160" y="59"/>
      <point x="129" y="89"/>
      <point x="129" y="127" type="curve" smooth="yes"/>
      <point x="129" y="223" type="line"/>
      <point x="243" y="223" type="line" smooth="yes"/>
      <point x="258" y="223"/>
      <point x="271" y="235"/>
      <point x="271" y="250" type="curve" smooth="yes"/>
      <point x="271" y="266"/>
      <point x="258" y="278"/>
      <point x="243" y="278" type="curve" smooth="yes"/>
      <point x="129" y="278" type="line"/>
      <point x="129" y="373" type="line" smooth="yes"/>
      <point x="129" y="411"/>
      <point x="160" y="442"/>
      <point x="198" y="442" type="curve" smooth="yes"/>
      <point x="236" y="442"/>
      <point x="267" y="411"/>
      <point x="267" y="373" type="curve" smooth="yes"/>
      <point x="267" y="358"/>
      <point x="279" y="346"/>
      <point x="294" y="346" type="curve" smooth="yes"/>
      <point x="310" y="346"/>
      <point x="322" y="358"/>
      <point x="322" y="373" type="curve" smooth="yes"/>
      <point x="322" y="442"/>
      <point x="266" y="497"/>
      <point x="198" y="497" type="curve" smooth="yes"/>
      <point x="166" y="497"/>
      <point x="138" y="485"/>
      <point x="116" y="465" type="curve"/>
      <point x="102" y="486"/>
      <point x="79" y="499"/>
      <point x="52" y="499" type="curve" smooth="yes"/>
      <point x="37" y="499"/>
      <point x="25" y="486"/>
      <point x="25" y="471" type="curve" smooth="yes"/>
      <point x="25" y="456"/>
      <point x="37" y="444"/>
      <point x="52" y="444" type="curve" smooth="yes"/>
      <point x="64" y="444"/>
      <point x="74" y="434"/>
      <point x="74" y="422" type="curve" smooth="yes"/>
      <point x="74" y="360" type="line"/>
      <point x="74" y="360"/>
      <point x="74" y="360"/>
      <point x="74" y="360" type="curve"/>
      <point x="74" y="278" type="line"/>
      <point x="61" y="278" type="line" smooth="yes"/>
      <point x="45" y="278"/>
      <point x="33" y="266"/>
      <point x="33" y="250" type="curve" smooth="yes"/>
      <point x="33" y="235"/>
      <point x="45" y="223"/>
      <point x="61" y="223" type="curve" smooth="yes"/>
      <point x="74" y="223" type="line"/>
      <point x="74" y="142" type="line" smooth="yes"/>
      <point x="74" y="141"/>
      <point x="74" y="141"/>
      <point x="74" y="141" type="curve"/>
      <point x="74" y="80" type="line" smooth="yes"/>
      <point x="74" y="68"/>
      <point x="64" y="58"/>
      <point x="52" y="58" type="curve" smooth="yes"/>
      <point x="37" y="58"/>
      <point x="25" y="46"/>
      <point x="25" y="30" type="curve" smooth="yes"/>
      <point x="25" y="15"/>
      <point x="37" y="3"/>
      <point x="52" y="3" type="curve" smooth="yes"/>
      <point x="79" y="3"/>
      <point x="102" y="16"/>
      <point x="115" y="36" type="curve"/>
      <point x="137" y="16"/>
      <point x="166" y="4"/>
      <point x="198" y="4" type="curve" smooth="yes"/>
      <point x="266" y="4"/>
      <point x="322" y="59"/>
      <point x="322" y="127" type="curve" smooth="yes"/>
      <point x="322" y="143"/>
      <point x="310" y="155"/>
      <point x="294" y="155" type="curve" smooth="yes"/>
    </contour>
  </outline>
</glyph>
<glyph name="F" format="1">
  <advance width="347"/>
  <unicode hex="0046"/>
  <note>
    F
  </note>
  <outline>
    <contour>
      <point x="166" y="497"/>
      <point x="138" y="485"/>
      <point x="116" y="465" type="curve"/>
      <point x="102" y="486"/>
      <point x="79" y="499"/>
      <point x="52" y="499" type="curve" smooth="yes"/>
      <point x="37" y="499"/>
      <point x="25" y="486"/>
      <point x="25" y="471" type="curve" smooth="yes"/>
      <point x="25" y="456"/>
      <point x="37" y="444"/>
      <point x="52" y="444" type="curve" smooth="yes"/>
      <point x="64" y="444"/>
      <point x="74" y="434"/>
      <point x="74" y="422" type="curve" smooth="yes"/>
      <point x="74" y="360" type="line"/>
      <point x="74" y="360"/>
      <point x="74" y="360"/>
      <point x="74" y="360" type="curve"/>
      <point x="74" y="278" type="line"/>
      <point x="61" y="278" type="line" smooth="yes"/>
      <point x="45" y="278"/>
      <point x="33" y="266"/>
      <point x="33" y="250" type="curve" smooth="yes"/>
      <point x="33" y="235"/>
      <point x="45" y="223"/>
      <point x="61" y="223" type="curve" smooth="yes"/>
      <point x="74" y="223" type="line"/>
      <point x="74" y="142" type="line" smooth="yes"/>
      <point x="74" y="141"/>
      <point x="74" y="141"/>
      <point x="74" y="141" type="curve"/>
      <point x="74" y="80" type="line" smooth="yes"/>
      <point x="74" y="68"/>
      <point x="64" y="58"/>
      <point x="53" y="58" type="curve" smooth="yes"/>
      <point x="37" y="58"/>
      <point x="25" y="46"/>
      <point x="25" y="30" type="curve" smooth="yes"/>
      <point x="25" y="15"/>
      <point x="37" y="3"/>
      <point x="53" y="3" type="curve" smooth="yes"/>
      <point x="71" y="3"/>
      <point x="88" y="10"/>
      <point x="102" y="21" type="curve"/>
      <point x="115" y="10"/>
      <point x="132" y="3"/>
      <point x="151" y="3" type="curve" smooth="yes"/>
      <point x="166" y="3"/>
      <point x="178" y="15"/>
      <point x="178" y="30" type="curve" smooth="yes"/>
      <point x="178" y="46"/>
      <point x="166" y="58"/>
      <point x="151" y="58" type="curve" smooth="yes"/>
      <point x="139" y="58"/>
      <point x="129" y="68"/>
      <point x="129" y="80" type="curve" smooth="yes"/>
      <point x="129" y="127" type="line"/>
      <point x="129" y="127"/>
      <point x="129" y="127"/>
      <point x="129" y="127" type="curve"/>
      <point x="129" y="223" type="line"/>
      <point x="243" y="223" type="line" smooth="yes"/>
      <point x="258" y="223"/>
      <point x="271" y="235"/>
      <point x="271" y="250" type="curve" smooth="yes"/>
      <point x="271" y="266"/>
      <point x="258" y="278"/>
      <point x="243" y="278" type="curve" smooth="yes"/>
      <point x="129" y="278" type="line"/>
      <point x="129" y="373" type="line" smooth="yes"/>
      <point x="129" y="411"/>
      <point x="160" y="442"/>
      <point x="198" y="442" type="curve" smooth="yes"/>
      <point x="236" y="442"/>
      <point x="267" y="411"/>
      <point x="267" y="373" type="curve" smooth="yes"/>
      <point x="267" y="358"/>
      <point x="279" y="346"/>
      <point x="294" y="346" type="curve" smooth="yes"/>
      <point x="310" y="346"/>
      <point x="322" y="358"/>
      <point x="322" y="373" type="curve" smooth="yes"/>
      <point x="322" y="442"/>
      <point x="266" y="497"/>
      <point x="198" y="497" type="curve" smooth="yes"/>
    </contour>
  </outline>
</glyph>
<glyph name="G" format="1">
  <advance width="347"/>
  <unicode hex="0047"/>
  <note>
    G
  </note>
  <outline>
    <contour>
      <point x="276" y="214"/>
      <point x="258" y="207"/>
      <point x="245" y="196" type="curve"/>
      <point x="232" y="207"/>
      <point x="215" y="214"/>
      <point x="196" y="214" type="curve" smooth="yes"/>
      <point x="181" y="214"/>
      <point x="168" y="202"/>
      <point x="168" y="186" type="curve" smooth="yes"/>
      <point x="168" y="171"/>
      <point x="181" y="159"/>
      <point x="196" y="159" type="curve" smooth="yes"/>
      <point x="208" y="159"/>
      <point x="218" y="149"/>
      <point x="218" y="137" type="curve" smooth="yes"/>
      <point x="218" y="135"/>
      <point x="218" y="134"/>
      <point x="219" y="132" type="curve"/>
      <point x="218" y="131"/>
      <point x="218" y="129"/>
      <point x="218" y="128" type="curve" smooth="yes"/>
      <point x="218" y="90"/>
      <point x="187" y="59"/>
      <point x="149" y="59" type="curve" smooth="yes"/>
      <point x="111" y="59"/>
      <point x="80" y="90"/>
      <point x="80" y="128" type="curve" smooth="yes"/>
      <point x="80" y="374" type="line" smooth="yes"/>
      <point x="80" y="412"/>
      <point x="111" y="443"/>
      <point x="149" y="443" type="curve" smooth="yes"/>
      <point x="187" y="443"/>
      <point x="218" y="412"/>
      <point x="218" y="374" type="curve" smooth="yes"/>
      <point x="218" y="359"/>
      <point x="230" y="346"/>
      <point x="245" y="346" type="curve" smooth="yes"/>
      <point x="260" y="346"/>
      <point x="273" y="359"/>
      <point x="273" y="374" type="curve" smooth="yes"/>
      <point x="273" y="442"/>
      <point x="217" y="498"/>
      <point x="149" y="498" type="curve" smooth="yes"/>
      <point x="81" y="498"/>
      <point x="25" y="442"/>
      <point x="25" y="374" type="curve" smooth="yes"/>
      <point x="25" y="128" type="line" smooth="yes"/>
      <point x="25" y="60"/>
      <point x="81" y="4"/>
      <point x="149" y="4" type="curve" smooth="yes"/>
      <point x="217" y="4"/>
      <point x="273" y="60"/>
      <point x="273" y="128" type="curve" smooth="yes"/>
      <point x="273" y="129"/>
      <point x="272" y="131"/>
      <point x="272" y="132" type="curve" smooth="yes"/>
      <point x="272" y="134"/>
      <point x="273" y="135"/>
      <point x="273" y="137" type="curve" smooth="yes"/>
      <point x="273" y="149"/>
      <point x="282" y="159"/>
      <point x="294" y="159" type="curve" smooth="yes"/>
      <point x="310" y="159"/>
      <point x="322" y="171"/>
      <point x="322" y="186" type="curve" smooth="yes"/>
      <point x="322" y="202"/>
      <point x="310" y="214"/>
      <point x="294" y="214" type="curve" smooth="yes"/>
    </contour>
  </outline>
</glyph>
<glyph name="H" format="1">
  <advance width="359"/>
  <unicode hex="0048"/>
  <note>
    H
  </note>
  <outline>
    <contour>
      <point x="322" y="3"/>
      <point x="334" y="15"/>
      <point x="334" y="30" type="curve" smooth="yes"/>
      <point x="334" y="46"/>
      <point x="322" y="58"/>
      <point x="306" y="58" type="curve" smooth="yes"/>
      <point x="294" y="58"/>
      <point x="285" y="68"/>
      <point x="285" y="80" type="curve" smooth="yes"/>
      <point x="285" y="223" type="line"/>
      <point x="299" y="223" type="line" smooth="yes"/>
      <point x="314" y="223"/>
      <point x="326" y="236"/>
      <point x="326" y="251" type="curve" smooth="yes"/>
      <point x="326" y="266"/>
      <point x="314" y="278"/>
      <point x="299" y="278" type="curve" smooth="yes"/>
      <point x="285" y="278" type="line"/>
      <point x="285" y="422" type="line" smooth="yes"/>
      <point x="285" y="434"/>
      <point x="294" y="444"/>
      <point x="306" y="444" type="curve" smooth="yes"/>
      <point x="322" y="444"/>
      <point x="334" y="456"/>
      <point x="334" y="471" type="curve" smooth="yes"/>
      <point x="334" y="486"/>
      <point x="322" y="499"/>
      <point x="306" y="499" type="curve" smooth="yes"/>
      <point x="288" y="499"/>
      <point x="271" y="492"/>
      <point x="257" y="481" type="curve"/>
      <point x="244" y="492"/>
      <point x="227" y="499"/>
      <point x="208" y="499" type="curve" smooth="yes"/>
      <point x="193" y="499"/>
      <point x="181" y="486"/>
      <point x="181" y="471" type="curve" smooth="yes"/>
      <point x="181" y="456"/>
      <point x="193" y="444"/>
      <point x="208" y="444" type="curve" smooth="yes"/>
      <point x="220" y="444"/>
      <point x="230" y="434"/>
      <point x="230" y="422" type="curve" smooth="yes"/>
      <point x="230" y="278" type="line"/>
      <point x="129" y="278" type="line"/>
      <point x="129" y="422" type="line" smooth="yes"/>
      <point x="129" y="434"/>
      <point x="139" y="444"/>
      <point x="151" y="444" type="curve" smooth="yes"/>
      <point x="166" y="444"/>
      <point x="178" y="456"/>
      <point x="178" y="471" type="curve" smooth="yes"/>
      <point x="178" y="486"/>
      <point x="166" y="499"/>
      <point x="151" y="499" type="curve" smooth="yes"/>
      <point x="132" y="499"/>
      <point x="115" y="492"/>
      <point x="102" y="481" type="curve"/>
      <point x="88" y="492"/>
      <point x="71" y="499"/>
      <point x="52" y="499" type="curve" smooth="yes"/>
      <point x="37" y="499"/>
      <point x="25" y="486"/>
      <point x="25" y="471" type="curve" smooth="yes"/>
      <point x="25" y="456"/>
      <point x="37" y="444"/>
      <point x="52" y="444" type="curve" smooth="yes"/>
      <point x="64" y="444"/>
      <point x="74" y="434"/>
      <point x="74" y="422" type="curve" smooth="yes"/>
      <point x="74" y="278" type="line"/>
      <point x="60" y="278" type="line" smooth="yes"/>
      <point x="44" y="278"/>
      <point x="32" y="266"/>
      <point x="32" y="251" type="curve" smooth="yes"/>
      <point x="32" y="236"/>
      <point x="44" y="223"/>
      <point x="60" y="223" type="curve" smooth="yes"/>
      <point x="74" y="223" type="line"/>
      <point x="74" y="80" type="line"/>
      <point x="74" y="80"/>
      <point x="74" y="80"/>
      <point x="74" y="80" type="curve"/>
      <point x="74" y="68"/>
      <point x="64" y="58"/>
      <point x="52" y="58" type="curve" smooth="yes"/>
      <point x="37" y="58"/>
      <point x="25" y="46"/>
      <point x="25" y="30" type="curve" smooth="yes"/>
      <point x="25" y="15"/>
      <point x="37" y="3"/>
      <point x="52" y="3" type="curve" smooth="yes"/>
      <point x="71" y="3"/>
      <point x="88" y="10"/>
      <point x="102" y="21" type="curve"/>
      <point x="115" y="10"/>
      <point x="132" y="3"/>
      <point x="151" y="3" type="curve" smooth="yes"/>
      <point x="166" y="3"/>
      <point x="178" y="15"/>
      <point x="178" y="30" type="curve" smooth="yes"/>
      <point x="178" y="46"/>
      <point x="166" y="58"/>
      <point x="151" y="58" type="curve" smooth="yes"/>
      <point x="139" y="58"/>
      <point x="129" y="68"/>
      <point x="129" y="80" type="curve" smooth="yes"/>
      <point x="129" y="223" type="line"/>
      <point x="230" y="223" type="line"/>
      <point x="230" y="80" type="line"/>
      <point x="230" y="80"/>
      <point x="230" y="80"/>
      <point x="230" y="80" type="curve"/>
      <point x="230" y="68"/>
      <point x="220" y="58"/>
      <point x="208" y="58" type="curve" smooth="yes"/>
      <point x="193" y="58"/>
      <point x="181" y="46"/>
      <point x="181" y="30" type="curve" smooth="yes"/>
      <point x="181" y="15"/>
      <point x="193" y="3"/>
      <point x="208" y="3" type="curve" smooth="yes"/>
      <point x="227" y="3"/>
      <point x="244" y="10"/>
      <point x="257" y="21" type="curve"/>
      <point x="271" y="10"/>
      <point x="288" y="3"/>
      <point x="306" y="3" type="curve" smooth="yes"/>
    </contour>
  </outline>
</glyph>
<glyph name="K" format="1">
  <advance width="373"/>
  <unicode hex="004B"/>
  <note>
    K
  </note>
  <outline>
    <contour>
      <point x="313" y="59"/>
      <point x="307" y="62"/>
      <point x="303" y="67" type="curve"/>
      <point x="303" y="67"/>
      <point x="303" y="67"/>
      <point x="303" y="67" type="curve"/>
      <point x="195" y="223" type="line"/>
      <point x="212" y="223" type="line" smooth="yes"/>
      <point x="227" y="223"/>
      <point x="239" y="235"/>
      <point x="239" y="250" type="curve" smooth="yes"/>
      <point x="239" y="266"/>
      <point x="227" y="278"/>
      <point x="212" y="278" type="curve" smooth="yes"/>
      <point x="194" y="278" type="line"/>
      <point x="303" y="435" type="line"/>
      <point x="303" y="435"/>
      <point x="303" y="435"/>
      <point x="303" y="436" type="curve"/>
      <point x="307" y="441"/>
      <point x="313" y="444"/>
      <point x="320" y="444" type="curve" smooth="yes"/>
      <point x="335" y="444"/>
      <point x="348" y="456"/>
      <point x="348" y="471" type="curve" smooth="yes"/>
      <point x="348" y="486"/>
      <point x="335" y="499"/>
      <point x="320" y="499" type="curve" smooth="yes"/>
      <point x="302" y="499"/>
      <point x="285" y="492"/>
      <point x="271" y="481" type="curve"/>
      <point x="257" y="492"/>
      <point x="240" y="499"/>
      <point x="222" y="499" type="curve" smooth="yes"/>
      <point x="207" y="499"/>
      <point x="194" y="486"/>
      <point x="194" y="471" type="curve" smooth="yes"/>
      <point x="194" y="456"/>
      <point x="207" y="444"/>
      <point x="222" y="444" type="curve" smooth="yes"/>
      <point x="228" y="444"/>
      <point x="233" y="441"/>
      <point x="237" y="437" type="curve"/>
      <point x="129" y="281" type="line"/>
      <point x="129" y="422" type="line" smooth="yes"/>
      <point x="129" y="434"/>
      <point x="139" y="444"/>
      <point x="151" y="444" type="curve" smooth="yes"/>
      <point x="166" y="444"/>
      <point x="178" y="456"/>
      <point x="178" y="471" type="curve" smooth="yes"/>
      <point x="178" y="486"/>
      <point x="166" y="499"/>
      <point x="151" y="499" type="curve" smooth="yes"/>
      <point x="132" y="499"/>
      <point x="115" y="492"/>
      <point x="102" y="481" type="curve"/>
      <point x="88" y="492"/>
      <point x="71" y="499"/>
      <point x="52" y="499" type="curve" smooth="yes"/>
      <point x="37" y="499"/>
      <point x="25" y="486"/>
      <point x="25" y="471" type="curve" smooth="yes"/>
      <point x="25" y="456"/>
      <point x="37" y="444"/>
      <point x="52" y="444" type="curve" smooth="yes"/>
      <point x="64" y="444"/>
      <point x="74" y="434"/>
      <point x="74" y="422" type="curve" smooth="yes"/>
      <point x="74" y="278" type="line"/>
      <point x="61" y="278" type="line" smooth="yes"/>
      <point x="45" y="278"/>
      <point x="33" y="266"/>
      <point x="33" y="250" type="curve" smooth="yes"/>
      <point x="33" y="235"/>
      <point x="45" y="223"/>
      <point x="61" y="223" type="curve" smooth="yes"/>
      <point x="74" y="223" type="line"/>
      <point x="74" y="80" type="line"/>
      <point x="74" y="80"/>
      <point x="74" y="80"/>
      <point x="74" y="80" type="curve"/>
      <point x="74" y="68"/>
      <point x="64" y="58"/>
      <point x="52" y="58" type="curve" smooth="yes"/>
      <point x="37" y="58"/>
      <point x="25" y="46"/>
      <point x="25" y="30" type="curve" smooth="yes"/>
      <point x="25" y="15"/>
      <point x="37" y="3"/>
      <point x="52" y="3" type="curve" smooth="yes"/>
      <point x="71" y="3"/>
      <point x="88" y="10"/>
      <point x="102" y="21" type="curve"/>
      <point x="115" y="10"/>
      <point x="132" y="3"/>
      <point x="151" y="3" type="curve" smooth="yes"/>
      <point x="166" y="3"/>
      <point x="178" y="15"/>
      <point x="178" y="30" type="curve" smooth="yes"/>
      <point x="178" y="46"/>
      <point x="166" y="58"/>
      <point x="151" y="58" type="curve" smooth="yes"/>
      <point x="139" y="58"/>
      <point x="129" y="68"/>
      <point x="129" y="80" type="curve"/>
      <point x="129" y="80"/>
      <point x="129" y="80"/>
      <point x="129" y="80" type="curve"/>
      <point x="129" y="222" type="line"/>
      <point x="237" y="66" type="line"/>
      <point x="233" y="62"/>
      <point x="228" y="59"/>
      <point x="222" y="59" type="curve" smooth="yes"/>
      <point x="207" y="59"/>
      <point x="194" y="46"/>
      <point x="194" y="31" type="curve" smooth="yes"/>
      <point x="194" y="16"/>
      <point x="207" y="4"/>
      <point x="222" y="4" type="curve" smooth="yes"/>
      <point x="240" y="4"/>
      <point x="257" y="10"/>
      <point x="271" y="22" type="curve"/>
      <point x="285" y="10"/>
      <point x="302" y="4"/>
      <point x="320" y="4" type="curve" smooth="yes"/>
      <point x="335" y="4"/>
      <point x="348" y="16"/>
      <point x="348" y="31" type="curve" smooth="yes"/>
      <point x="348" y="46"/>
      <point x="335" y="59"/>
      <point x="320" y="59" type="curve" smooth="yes"/>
    </contour>
  </outline>
</glyph>
<glyph name="Q" format="1">
  <advance width="380"/>
  <unicode hex="0051"/>
  <note>
    Q
  </note>
  <outline>
    <contour>
      <point x="259" y="128" type="line" smooth="yes"/>
      <point x="259" y="120"/>
      <point x="257" y="113"/>
      <point x="255" y="106" type="curve"/>
      <point x="249" y="112" type="line" smooth="yes"/>
      <point x="238" y="123"/>
      <point x="221" y="123"/>
      <point x="210" y="112" type="curve" smooth="yes"/>
      <point x="199" y="101"/>
      <point x="199" y="84"/>
      <point x="210" y="73" type="curve" smooth="yes"/>
      <point x="218" y="65" type="line"/>
      <point x="209" y="61"/>
      <point x="200" y="59"/>
      <point x="190" y="59" type="curve" smooth="yes"/>
      <point x="152" y="59"/>
      <point x="121" y="90"/>
      <point x="121" y="128" type="curve" smooth="yes"/>
      <point x="121" y="223" type="line"/>
      <point x="135" y="223" type="line" smooth="yes"/>
      <point x="150" y="223"/>
      <point x="162" y="236"/>
      <point x="162" y="251" type="curve" smooth="yes"/>
      <point x="162" y="266"/>
      <point x="150" y="278"/>
      <point x="135" y="278" type="curve" smooth="yes"/>
      <point x="121" y="278" type="line"/>
      <point x="121" y="374" type="line" smooth="yes"/>
      <point x="121" y="412"/>
      <point x="152" y="443"/>
      <point x="190" y="443" type="curve" smooth="yes"/>
      <point x="228" y="443"/>
      <point x="259" y="412"/>
      <point x="259" y="374" type="curve" smooth="yes"/>
      <point x="259" y="280" type="line"/>
      <point x="245" y="280" type="line" smooth="yes"/>
      <point x="230" y="280"/>
      <point x="218" y="268"/>
      <point x="218" y="253" type="curve" smooth="yes"/>
      <point x="218" y="237"/>
      <point x="230" y="225"/>
      <point x="245" y="225" type="curve" smooth="yes"/>
      <point x="259" y="225" type="line"/>
    </contour>
    <contour>
      <point x="268" y="15" type="line" smooth="yes"/>
      <point x="273" y="10"/>
      <point x="280" y="7"/>
      <point x="287" y="7" type="curve" smooth="yes"/>
      <point x="295" y="7"/>
      <point x="302" y="10"/>
      <point x="307" y="15" type="curve" smooth="yes"/>
      <point x="318" y="26"/>
      <point x="318" y="43"/>
      <point x="307" y="54" type="curve" smooth="yes"/>
      <point x="296" y="65" type="line"/>
      <point x="307" y="83"/>
      <point x="314" y="105"/>
      <point x="314" y="128" type="curve" smooth="yes"/>
      <point x="314" y="225" type="line"/>
      <point x="327" y="225" type="line" smooth="yes"/>
      <point x="343" y="225"/>
      <point x="355" y="237"/>
      <point x="355" y="253" type="curve" smooth="yes"/>
      <point x="355" y="268"/>
      <point x="343" y="280"/>
      <point x="327" y="280" type="curve" smooth="yes"/>
      <point x="314" y="280" type="line"/>
      <point x="314" y="374" type="line" smooth="yes"/>
      <point x="314" y="442"/>
      <point x="258" y="498"/>
      <point x="190" y="498" type="curve" smooth="yes"/>
      <point x="122" y="498"/>
      <point x="66" y="442"/>
      <point x="66" y="374" type="curve" smooth="yes"/>
      <point x="66" y="278" type="line"/>
      <point x="52" y="278" type="line" smooth="yes"/>
      <point x="37" y="278"/>
      <point x="25" y="266"/>
      <point x="25" y="251" type="curve" smooth="yes"/>
      <point x="25" y="236"/>
      <point x="37" y="223"/>
      <point x="52" y="223" type="curve" smooth="yes"/>
      <point x="66" y="223" type="line"/>
      <point x="66" y="128" type="line" smooth="yes"/>
      <point x="66" y="60"/>
      <point x="122" y="4"/>
      <point x="190" y="4" type="curve" smooth="yes"/>
      <point x="215" y="4"/>
      <point x="239" y="12"/>
      <point x="258" y="25" type="curve"/>
    </contour>
  </outline>
</glyph>
<glyph name="U" format="1">
  <advance width="396"/>
  <unicode hex="0055"/>
  <note>
    U
  </note>
  <outline>
    <contour>
      <point x="359" y="443"/>
      <point x="371" y="456"/>
      <point x="371" y="471" type="curve" smooth="yes"/>
      <point x="371" y="486"/>
      <point x="359" y="498"/>
      <point x="344" y="498" type="curve" smooth="yes"/>
      <point x="325" y="498"/>
      <point x="308" y="492"/>
      <point x="294" y="480" type="curve"/>
      <point x="281" y="492"/>
      <point x="264" y="498"/>
      <point x="245" y="498" type="curve" smooth="yes"/>
      <point x="230" y="498"/>
      <point x="218" y="486"/>
      <point x="218" y="471" type="curve" smooth="yes"/>
      <point x="218" y="456"/>
      <point x="230" y="443"/>
      <point x="245" y="443" type="curve" smooth="yes"/>
      <point x="257" y="443"/>
      <point x="267" y="434"/>
      <point x="267" y="422" type="curve" smooth="yes"/>
      <point x="267" y="277" type="line"/>
      <point x="253" y="277" type="line" smooth="yes"/>
      <point x="238" y="277"/>
      <point x="226" y="265"/>
      <point x="226" y="250" type="curve" smooth="yes"/>
      <point x="226" y="235"/>
      <point x="238" y="222"/>
      <point x="253" y="222" type="curve" smooth="yes"/>
      <point x="267" y="222" type="line"/>
      <point x="267" y="127" type="line" smooth="yes"/>
      <point x="267" y="89"/>
      <point x="236" y="58"/>
      <point x="198" y="58" type="curve" smooth="yes"/>
      <point x="160" y="58"/>
      <point x="129" y="89"/>
      <point x="129" y="127" type="curve"/>
      <point x="129" y="127"/>
      <point x="129" y="127"/>
      <point x="129" y="127" type="curve"/>
      <point x="129" y="222" type="line"/>
      <point x="143" y="222" type="line" smooth="yes"/>
      <point x="158" y="222"/>
      <point x="170" y="235"/>
      <point x="170" y="250" type="curve" smooth="yes"/>
      <point x="170" y="265"/>
      <point x="158" y="277"/>
      <point x="143" y="277" type="curve" smooth="yes"/>
      <point x="129" y="277" type="line"/>
      <point x="129" y="422" type="line" smooth="yes"/>
      <point x="129" y="434"/>
      <point x="139" y="443"/>
      <point x="151" y="443" type="curve" smooth="yes"/>
      <point x="166" y="443"/>
      <point x="178" y="456"/>
      <point x="178" y="471" type="curve" smooth="yes"/>
      <point x="178" y="486"/>
      <point x="166" y="498"/>
      <point x="151" y="498" type="curve" smooth="yes"/>
      <point x="132" y="498"/>
      <point x="115" y="492"/>
      <point x="102" y="480" type="curve"/>
      <point x="88" y="492"/>
      <point x="71" y="498"/>
      <point x="52" y="498" type="curve" smooth="yes"/>
      <point x="37" y="498"/>
      <point x="25" y="486"/>
      <point x="25" y="471" type="curve" smooth="yes"/>
      <point x="25" y="456"/>
      <point x="37" y="443"/>
      <point x="52" y="443" type="curve" smooth="yes"/>
      <point x="64" y="443"/>
      <point x="74" y="434"/>
      <point x="74" y="422" type="curve" smooth="yes"/>
      <point x="74" y="277" type="line"/>
      <point x="61" y="277" type="line" smooth="yes"/>
      <point x="45" y="277"/>
      <point x="33" y="265"/>
      <point x="33" y="250" type="curve" smooth="yes"/>
      <point x="33" y="235"/>
      <point x="45" y="222"/>
      <point x="61" y="222" type="curve" smooth="yes"/>
      <point x="74" y="222" type="line"/>
      <point x="74" y="117" type="line" smooth="yes"/>
      <point x="74" y="114"/>
      <point x="75" y="110"/>
      <point x="76" y="107" type="curve"/>
      <point x="86" y="48"/>
      <point x="137" y="3"/>
      <point x="198" y="3" type="curve" smooth="yes"/>
      <point x="259" y="3"/>
      <point x="310" y="48"/>
      <point x="320" y="107" type="curve"/>
      <point x="321" y="110"/>
      <point x="322" y="114"/>
      <point x="322" y="117" type="curve" smooth="yes"/>
      <point x="322" y="222" type="line"/>
      <point x="335" y="222" type="line" smooth="yes"/>
      <point x="351" y="222"/>
      <point x="363" y="235"/>
      <point x="363" y="250" type="curve" smooth="yes"/>
      <point x="363" y="265"/>
      <point x="351" y="277"/>
      <point x="335" y="277" type="curve" smooth="yes"/>
      <point x="322" y="277" type="line"/>
      <point x="322" y="422" type="line" smooth="yes"/>
      <point x="322" y="434"/>
      <point x="332" y="443"/>
      <point x="344" y="443" type="curve" smooth="yes"/>
    </contour>
  </outline>
</glyph>
<glyph name="a" format="1">
  <advance width="391"/>
  <unicode hex="0061"/>
  <note>
    a
  </note>
  <outline>
    <contour>
      <point x="334" y="58"/>
      <point x="329" y="60"/>
      <point x="325" y="63" type="curve"/>
      <point x="325" y="64"/>
      <point x="325" y="65"/>
      <point x="325" y="66" type="curve"/>
      <point x="283" y="223" type="line"/>
      <point x="284" y="223" type="line" smooth="yes"/>
      <point x="299" y="223"/>
      <point x="311" y="235"/>
      <point x="311" y="251" type="curve" smooth="yes"/>
      <point x="311" y="266"/>
      <point x="299" y="278"/>
      <point x="284" y="278" type="curve" smooth="yes"/>
      <point x="269" y="278" type="line"/>
      <point x="227" y="434" type="line"/>
      <point x="231" y="440"/>
      <point x="237" y="444"/>
      <point x="245" y="444" type="curve" smooth="yes"/>
      <point x="260" y="444"/>
      <point x="272" y="456"/>
      <point x="272" y="471" type="curve" smooth="yes"/>
      <point x="272" y="487"/>
      <point x="260" y="499"/>
      <point x="245" y="499" type="curve" smooth="yes"/>
      <point x="226" y="499"/>
      <point x="209" y="492"/>
      <point x="196" y="481" type="curve"/>
      <point x="182" y="492"/>
      <point x="165" y="499"/>
      <point x="146" y="499" type="curve" smooth="yes"/>
      <point x="131" y="499"/>
      <point x="119" y="487"/>
      <point x="119" y="471" type="curve" smooth="yes"/>
      <point x="119" y="456"/>
      <point x="131" y="444"/>
      <point x="146" y="444" type="curve" smooth="yes"/>
      <point x="154" y="444"/>
      <point x="160" y="440"/>
      <point x="164" y="434" type="curve"/>
      <point x="122" y="278" type="line"/>
      <point x="107" y="278" type="line" smooth="yes"/>
      <point x="92" y="278"/>
      <point x="80" y="266"/>
      <point x="80" y="251" type="curve" smooth="yes"/>
      <point x="80" y="235"/>
      <point x="92" y="223"/>
      <point x="107" y="223" type="curve" smooth="yes"/>
      <point x="108" y="223" type="line"/>
      <point x="66" y="66" type="line"/>
      <point x="66" y="65"/>
      <point x="66" y="64"/>
      <point x="66" y="63" type="curve"/>
      <point x="62" y="60"/>
      <point x="58" y="58"/>
      <point x="52" y="58" type="curve" smooth="yes"/>
      <point x="37" y="58"/>
      <point x="25" y="45"/>
      <point x="25" y="30" type="curve" smooth="yes"/>
      <point x="25" y="15"/>
      <point x="37" y="3"/>
      <point x="52" y="3" type="curve" smooth="yes"/>
      <point x="71" y="3"/>
      <point x="88" y="10"/>
      <point x="102" y="21" type="curve"/>
      <point x="115" y="10"/>
      <point x="132" y="3"/>
      <point x="151" y="3" type="curve" smooth="yes"/>
      <point x="166" y="3"/>
      <point x="178" y="15"/>
      <point x="178" y="30" type="curve" smooth="yes"/>
      <point x="178" y="45"/>
      <point x="166" y="58"/>
      <point x="151" y="58" type="curve" smooth="yes"/>
      <point x="139" y="58"/>
      <point x="129" y="68"/>
      <point x="129" y="80" type="curve" smooth="yes"/>
      <point x="129" y="81"/>
      <point x="128" y="83"/>
      <point x="128" y="85" type="curve"/>
      <point x="165" y="223" type="line"/>
      <point x="226" y="223" type="line"/>
      <point x="263" y="84" type="line"/>
      <point x="263" y="83"/>
      <point x="262" y="81"/>
      <point x="262" y="80" type="curve" smooth="yes"/>
      <point x="262" y="68"/>
      <point x="253" y="58"/>
      <point x="241" y="58" type="curve" smooth="yes"/>
      <point x="225" y="58"/>
      <point x="213" y="45"/>
      <point x="213" y="30" type="curve" smooth="yes"/>
      <point x="213" y="15"/>
      <point x="225" y="3"/>
      <point x="241" y="3" type="curve" smooth="yes"/>
      <point x="259" y="3"/>
      <point x="276" y="10"/>
      <point x="290" y="21" type="curve"/>
      <point x="303" y="10"/>
      <point x="320" y="3"/>
      <point x="339" y="3" type="curve" smooth="yes"/>
      <point x="354" y="3"/>
      <point x="366" y="15"/>
      <point x="366" y="30" type="curve" smooth="yes"/>
      <point x="366" y="45"/>
      <point x="354" y="58"/>
      <point x="339" y="58" type="curve" smooth="yes"/>
    </contour>
    <contour>
      <point x="179" y="278" type="line"/>
      <point x="196" y="340" type="line"/>
      <point x="212" y="278" type="line"/>
    </contour>
  </outline>
</glyph>
<glyph name="b" format="1">
  <advance width="347"/>
  <unicode hex="0062"/>
  <note>
    b
  </note>
  <outline>
    <contour>
      <point x="129" y="352" type="line"/>
      <point x="129" y="352"/>
      <point x="129" y="352"/>
      <point x="129" y="352" type="curve"/>
      <point x="129" y="375" type="line" smooth="yes"/>
      <point x="129" y="413"/>
      <point x="160" y="444"/>
      <point x="198" y="444" type="curve" smooth="yes"/>
      <point x="236" y="444"/>
      <point x="267" y="413"/>
      <point x="267" y="375" type="curve" smooth="yes"/>
      <point x="267" y="352" type="line" smooth="yes"/>
      <point x="267" y="351"/>
      <point x="267" y="351"/>
      <point x="267" y="350" type="curve" smooth="yes"/>
      <point x="267" y="349"/>
      <point x="267" y="348"/>
      <point x="267" y="348" type="curve"/>
      <point x="267" y="310"/>
      <point x="236" y="279"/>
      <point x="198" y="279" type="curve" smooth="yes"/>
      <point x="129" y="279" type="line"/>
    </contour>
    <contour>
      <point x="267" y="127" type="line" smooth="yes"/>
      <point x="267" y="89"/>
      <point x="236" y="58"/>
      <point x="198" y="58" type="curve" smooth="yes"/>
      <point x="160" y="58"/>
      <point x="129" y="89"/>
      <point x="129" y="127" type="curve" smooth="yes"/>
      <point x="129" y="224" type="line"/>
      <point x="198" y="224" type="line" smooth="yes"/>
      <point x="236" y="224"/>
      <point x="267" y="193"/>
      <point x="267" y="155" type="curve" smooth="yes"/>
      <point x="267" y="154"/>
      <point x="267" y="153"/>
      <point x="267" y="153" type="curve"/>
      <point x="267" y="152"/>
      <point x="267" y="151"/>
      <point x="267" y="150" type="curve" smooth="yes"/>
    </contour>
    <contour>
      <point x="137" y="16"/>
      <point x="166" y="4"/>
      <point x="198" y="4" type="curve" smooth="yes"/>
      <point x="266" y="4"/>
      <point x="322" y="59"/>
      <point x="322" y="127" type="curve" smooth="yes"/>
      <point x="322" y="150" type="line" smooth="yes"/>
      <point x="322" y="151"/>
      <point x="321" y="152"/>
      <point x="321" y="153" type="curve"/>
      <point x="321" y="153"/>
      <point x="322" y="154"/>
      <point x="322" y="155" type="curve" smooth="yes"/>
      <point x="322" y="194"/>
      <point x="303" y="228"/>
      <point x="275" y="251" type="curve"/>
      <point x="303" y="274"/>
      <point x="322" y="308"/>
      <point x="322" y="348" type="curve"/>
      <point x="322" y="348"/>
      <point x="321" y="349"/>
      <point x="321" y="350" type="curve" smooth="yes"/>
      <point x="321" y="351"/>
      <point x="322" y="351"/>
      <point x="322" y="352" type="curve" smooth="yes"/>
      <point x="322" y="375" type="line" smooth="yes"/>
      <point x="322" y="443"/>
      <point x="266" y="499"/>
      <point x="198" y="499" type="curve" smooth="yes"/>
      <point x="166" y="499"/>
      <point x="137" y="486"/>
      <point x="115" y="466" type="curve"/>
      <point x="101" y="486"/>
      <point x="78" y="499"/>
      <point x="52" y="499" type="curve" smooth="yes"/>
      <point x="37" y="499"/>
      <point x="25" y="487"/>
      <point x="25" y="471" type="curve" smooth="yes"/>
      <point x="25" y="456"/>
      <point x="37" y="444"/>
      <point x="52" y="444" type="curve" smooth="yes"/>
      <point x="64" y="444"/>
      <point x="74" y="434"/>
      <point x="74" y="422" type="curve" smooth="yes"/>
      <point x="74" y="384" type="line"/>
      <point x="74" y="384"/>
      <point x="74" y="384"/>
      <point x="74" y="384" type="curve"/>
      <point x="74" y="279" type="line"/>
      <point x="61" y="279" type="line" smooth="yes"/>
      <point x="45" y="279"/>
      <point x="33" y="266"/>
      <point x="33" y="251" type="curve"/>
      <point x="33" y="251"/>
      <point x="33" y="251"/>
      <point x="33" y="251" type="curve"/>
      <point x="33" y="236"/>
      <point x="45" y="224"/>
      <point x="61" y="224" type="curve" smooth="yes"/>
      <point x="74" y="224" type="line"/>
      <point x="74" y="80" type="line" smooth="yes"/>
      <point x="74" y="68"/>
      <point x="64" y="58"/>
      <point x="52" y="58" type="curve" smooth="yes"/>
      <point x="37" y="58"/>
      <point x="25" y="45"/>
      <point x="25" y="30" type="curve" smooth="yes"/>
      <point x="25" y="15"/>
      <point x="37" y="3"/>
      <point x="52" y="3" type="curve" smooth="yes"/>
      <point x="78" y="3"/>
      <point x="101" y="16"/>
      <point x="115" y="36" type="curve"/>
    </contour>
  </outline>
</glyph>
<glyph name="d" format="1">
  <advance width="347"/>
  <unicode hex="0064"/>
  <note>
    d
  </note>
  <outline>
    <contour>
      <point x="267" y="127" type="line" smooth="yes"/>
      <point x="267" y="89"/>
      <point x="236" y="59"/>
      <point x="198" y="59" type="curve" smooth="yes"/>
      <point x="160" y="59"/>
      <point x="129" y="89"/>
      <point x="129" y="127" type="curve" smooth="yes"/>
      <point x="129" y="223" type="line"/>
      <point x="143" y="223" type="line" smooth="yes"/>
      <point x="158" y="223"/>
      <point x="170" y="235"/>
      <point x="170" y="250" type="curve" smooth="yes"/>
      <point x="170" y="266"/>
      <point x="158" y="278"/>
      <point x="143" y="278" type="curve" smooth="yes"/>
      <point x="129" y="278" type="line"/>
      <point x="129" y="373" type="line" smooth="yes"/>
      <point x="129" y="411"/>
      <point x="160" y="442"/>
      <point x="198" y="442" type="curve" smooth="yes"/>
      <point x="236" y="442"/>
      <point x="267" y="411"/>
      <point x="267" y="373" type="curve" smooth="yes"/>
    </contour>
    <contour>
      <point x="137" y="16"/>
      <point x="166" y="4"/>
      <point x="198" y="4" type="curve" smooth="yes"/>
      <point x="266" y="4"/>
      <point x="322" y="59"/>
      <point x="322" y="127" type="curve" smooth="yes"/>
      <point x="322" y="373" type="line" smooth="yes"/>
      <point x="322" y="442"/>
      <point x="266" y="497"/>
      <point x="198" y="497" type="curve" smooth="yes"/>
      <point x="166" y="497"/>
      <point x="138" y="485"/>
      <point x="116" y="465" type="curve"/>
      <point x="102" y="486"/>
      <point x="79" y="499"/>
      <point x="52" y="499" type="curve" smooth="yes"/>
      <point x="37" y="499"/>
      <point x="25" y="486"/>
      <point x="25" y="471" type="curve" smooth="yes"/>
      <point x="25" y="456"/>
      <point x="37" y="444"/>
      <point x="52" y="444" type="curve" smooth="yes"/>
      <point x="64" y="444"/>
      <point x="74" y="434"/>
      <point x="74" y="422" type="curve" smooth="yes"/>
      <point x="74" y="360" type="line"/>
      <point x="74" y="360"/>
      <point x="74" y="360"/>
      <point x="74" y="360" type="curve"/>
      <point x="74" y="278" type="line"/>
      <point x="61" y="278" type="line" smooth="yes"/>
      <point x="45" y="278"/>
      <point x="33" y="266"/>
      <point x="33" y="250" type="curve" smooth="yes"/>
      <point x="33" y="235"/>
      <point x="45" y="223"/>
      <point x="61" y="223" type="curve" smooth="yes"/>
      <point x="74" y="223" type="line"/>
      <point x="74" y="142" type="line" smooth="yes"/>
      <point x="74" y="141"/>
      <point x="74" y="141"/>
      <point x="74" y="141" type="curve"/>
      <point x="74" y="80" type="line" smooth="yes"/>
      <point x="74" y="68"/>
      <point x="64" y="58"/>
      <point x="52" y="58" type="curve" smooth="yes"/>
      <point x="37" y="58"/>
      <point x="25" y="46"/>
      <point x="25" y="30" type="curve" smooth="yes"/>
      <point x="25" y="15"/>
      <point x="37" y="3"/>
      <point x="52" y="3" type="curve" smooth="yes"/>
      <point x="79" y="3"/>
      <point x="102" y="16"/>
      <point x="115" y="36" type="curve"/>
    </contour>
  </outline>
</glyph>
<glyph name="j" format="1">
  <advance width="396"/>
  <unicode hex="006A"/>
  <note>
    j
  </note>
  <outline>
    <contour>
      <point x="359" y="443"/>
      <point x="371" y="456"/>
      <point x="371" y="471" type="curve" smooth="yes"/>
      <point x="371" y="486"/>
      <point x="359" y="498"/>
      <point x="344" y="498" type="curve" smooth="yes"/>
      <point x="325" y="498"/>
      <point x="308" y="492"/>
      <point x="294" y="480" type="curve"/>
      <point x="281" y="492"/>
      <point x="264" y="498"/>
      <point x="245" y="498" type="curve" smooth="yes"/>
      <point x="230" y="498"/>
      <point x="218" y="486"/>
      <point x="218" y="471" type="curve" smooth="yes"/>
      <point x="218" y="456"/>
      <point x="230" y="443"/>
      <point x="245" y="443" type="curve" smooth="yes"/>
      <point x="257" y="443"/>
      <point x="267" y="434"/>
      <point x="267" y="422" type="curve" smooth="yes"/>
      <point x="267" y="277" type="line"/>
      <point x="253" y="277" type="line" smooth="yes"/>
      <point x="238" y="277"/>
      <point x="226" y="265"/>
      <point x="226" y="250" type="curve" smooth="yes"/>
      <point x="226" y="235"/>
      <point x="238" y="222"/>
      <point x="253" y="222" type="curve" smooth="yes"/>
      <point x="267" y="222" type="line"/>
      <point x="267" y="127" type="line" smooth="yes"/>
      <point x="267" y="89"/>
      <point x="236" y="58"/>
      <point x="198" y="58" type="curve" smooth="yes"/>
      <point x="160" y="58"/>
      <point x="129" y="89"/>
      <point x="129" y="127" type="curve" smooth="yes"/>
      <point x="129" y="128"/>
      <point x="129" y="130"/>
      <point x="128" y="131" type="curve"/>
      <point x="129" y="132"/>
      <point x="129" y="133"/>
      <point x="129" y="134" type="curve" smooth="yes"/>
      <point x="129" y="146"/>
      <point x="139" y="156"/>
      <point x="151" y="156" type="curve" smooth="yes"/>
      <point x="166" y="156"/>
      <point x="178" y="168"/>
      <point x="178" y="184" type="curve" smooth="yes"/>
      <point x="178" y="199"/>
      <point x="166" y="211"/>
      <point x="151" y="211" type="curve" smooth="yes"/>
      <point x="132" y="211"/>
      <point x="115" y="204"/>
      <point x="102" y="193" type="curve"/>
      <point x="88" y="204"/>
      <point x="71" y="211"/>
      <point x="52" y="211" type="curve" smooth="yes"/>
      <point x="37" y="211"/>
      <point x="25" y="199"/>
      <point x="25" y="184" type="curve" smooth="yes"/>
      <point x="25" y="168"/>
      <point x="37" y="156"/>
      <point x="52" y="156" type="curve" smooth="yes"/>
      <point x="64" y="156"/>
      <point x="74" y="146"/>
      <point x="74" y="134" type="curve" smooth="yes"/>
      <point x="74" y="133"/>
      <point x="75" y="132"/>
      <point x="75" y="131" type="curve" smooth="yes"/>
      <point x="75" y="130"/>
      <point x="74" y="129"/>
      <point x="74" y="127" type="curve" smooth="yes"/>
      <point x="74" y="59"/>
      <point x="130" y="3"/>
      <point x="198" y="3" type="curve" smooth="yes"/>
      <point x="259" y="3"/>
      <point x="310" y="48"/>
      <point x="320" y="107" type="curve"/>
      <point x="321" y="110"/>
      <point x="322" y="114"/>
      <point x="322" y="117" type="curve" smooth="yes"/>
      <point x="322" y="222" type="line"/>
      <point x="335" y="222" type="line" smooth="yes"/>
      <point x="351" y="222"/>
      <point x="363" y="235"/>
      <point x="363" y="250" type="curve" smooth="yes"/>
      <point x="363" y="265"/>
      <point x="351" y="277"/>
      <point x="335" y="277" type="curve" smooth="yes"/>
      <point x="322" y="277" type="line"/>
      <point x="322" y="422" type="line" smooth="yes"/>
      <point x="322" y="434"/>
      <point x="332" y="443"/>
      <point x="344" y="443" type="curve" smooth="yes"/>
    </contour>
  </outline>
</glyph>
<glyph name="l" format="1">
  <advance width="396"/>
  <unicode hex="006C"/>
  <note>
    l
  </note>
  <outline>
    <contour>
      <point x="325" y="212"/>
      <point x="308" y="205"/>
      <point x="294" y="194" type="curve"/>
      <point x="281" y="205"/>
      <point x="264" y="212"/>
      <point x="245" y="212" type="curve" smooth="yes"/>
      <point x="230" y="212"/>
      <point x="218" y="199"/>
      <point x="218" y="184" type="curve" smooth="yes"/>
      <point x="218" y="169"/>
      <point x="230" y="157"/>
      <point x="245" y="157" type="curve" smooth="yes"/>
      <point x="257" y="157"/>
      <point x="267" y="147"/>
      <point x="267" y="135" type="curve" smooth="yes"/>
      <point x="267" y="134"/>
      <point x="267" y="133"/>
      <point x="268" y="131" type="curve"/>
      <point x="267" y="130"/>
      <point x="267" y="129"/>
      <point x="267" y="128" type="curve" smooth="yes"/>
      <point x="267" y="90"/>
      <point x="236" y="59"/>
      <point x="198" y="59" type="curve" smooth="yes"/>
      <point x="160" y="59"/>
      <point x="129" y="90"/>
      <point x="129" y="128" type="curve" smooth="yes"/>
      <point x="129" y="150" type="line"/>
      <point x="129" y="150"/>
      <point x="129" y="150"/>
      <point x="129" y="150" type="curve"/>
      <point x="129" y="223" type="line"/>
      <point x="143" y="223" type="line" smooth="yes"/>
      <point x="158" y="223"/>
      <point x="170" y="235"/>
      <point x="170" y="251" type="curve" smooth="yes"/>
      <point x="170" y="266"/>
      <point x="158" y="278"/>
      <point x="143" y="278" type="curve" smooth="yes"/>
      <point x="129" y="278" type="line"/>
      <point x="129" y="422" type="line" smooth="yes"/>
      <point x="129" y="434"/>
      <point x="139" y="444"/>
      <point x="151" y="444" type="curve" smooth="yes"/>
      <point x="166" y="444"/>
      <point x="178" y="456"/>
      <point x="178" y="471" type="curve" smooth="yes"/>
      <point x="178" y="487"/>
      <point x="166" y="499"/>
      <point x="151" y="499" type="curve" smooth="yes"/>
      <point x="132" y="499"/>
      <point x="115" y="492"/>
      <point x="102" y="481" type="curve"/>
      <point x="88" y="492"/>
      <point x="71" y="499"/>
      <point x="52" y="499" type="curve" smooth="yes"/>
      <point x="37" y="499"/>
      <point x="25" y="487"/>
      <point x="25" y="471" type="curve" smooth="yes"/>
      <point x="25" y="456"/>
      <point x="37" y="444"/>
      <point x="52" y="444" type="curve" smooth="yes"/>
      <point x="64" y="444"/>
      <point x="74" y="434"/>
      <point x="74" y="422" type="curve" smooth="yes"/>
      <point x="74" y="278" type="line"/>
      <point x="61" y="278" type="line" smooth="yes"/>
      <point x="45" y="278"/>
      <point x="33" y="266"/>
      <point x="33" y="251" type="curve" smooth="yes"/>
      <point x="33" y="235"/>
      <point x="45" y="223"/>
      <point x="61" y="223" type="curve" smooth="yes"/>
      <point x="74" y="223" type="line"/>
      <point x="74" y="118" type="line"/>
      <point x="74" y="118"/>
      <point x="74" y="118"/>
      <point x="74" y="118" type="curve"/>
      <point x="74" y="80" type="line" smooth="yes"/>
      <point x="74" y="68"/>
      <point x="64" y="58"/>
      <point x="52" y="58" type="curve" smooth="yes"/>
      <point x="37" y="58"/>
      <point x="25" y="45"/>
      <point x="25" y="30" type="curve" smooth="yes"/>
      <point x="25" y="15"/>
      <point x="37" y="3"/>
      <point x="52" y="3" type="curve" smooth="yes"/>
      <point x="79" y="3"/>
      <point x="102" y="16"/>
      <point x="116" y="36" type="curve"/>
      <point x="138" y="16"/>
      <point x="166" y="4"/>
      <point x="198" y="4" type="curve" smooth="yes"/>
      <point x="266" y="4"/>
      <point x="322" y="60"/>
      <point x="322" y="128" type="curve" smooth="yes"/>
      <point x="322" y="129"/>
      <point x="321" y="130"/>
      <point x="321" y="131" type="curve" smooth="yes"/>
      <point x="321" y="133"/>
      <point x="322" y="134"/>
      <point x="322" y="135" type="curve" smooth="yes"/>
      <point x="322" y="147"/>
      <point x="332" y="157"/>
      <point x="344" y="157" type="curve" smooth="yes"/>
      <point x="359" y="157"/>
      <point x="371" y="169"/>
      <point x="371" y="184" type="curve" smooth="yes"/>
      <point x="371" y="199"/>
      <point x="359" y="212"/>
      <point x="344" y="212" type="curve" smooth="yes"/>
    </contour>
  </outline>
</glyph>
<glyph name="m" format="1">
  <advance width="446"/>
  <unicode hex="006D"/>
  <note>
    m
  </note>
  <outline>
    <contour>
      <point x="382" y="58"/>
      <point x="372" y="68"/>
      <point x="372" y="80" type="curve" smooth="yes"/>
      <point x="372" y="223" type="line"/>
      <point x="386" y="223" type="line" smooth="yes"/>
      <point x="401" y="223"/>
      <point x="413" y="235"/>
      <point x="413" y="250" type="curve" smooth="yes"/>
      <point x="413" y="266"/>
      <point x="401" y="278"/>
      <point x="386" y="278" type="curve" smooth="yes"/>
      <point x="372" y="278" type="line"/>
      <point x="372" y="422" type="line" smooth="yes"/>
      <point x="372" y="434"/>
      <point x="382" y="444"/>
      <point x="394" y="444" type="curve" smooth="yes"/>
      <point x="409" y="444"/>
      <point x="421" y="456"/>
      <point x="421" y="471" type="curve" smooth="yes"/>
      <point x="421" y="486"/>
      <point x="409" y="499"/>
      <point x="394" y="499" type="curve" smooth="yes"/>
      <point x="375" y="499"/>
      <point x="358" y="492"/>
      <point x="345" y="481" type="curve"/>
      <point x="331" y="492"/>
      <point x="314" y="499"/>
      <point x="296" y="499" type="curve" smooth="yes"/>
      <point x="280" y="499"/>
      <point x="268" y="486"/>
      <point x="268" y="471" type="curve" smooth="yes"/>
      <point x="268" y="456"/>
      <point x="280" y="444"/>
      <point x="296" y="444" type="curve" smooth="yes"/>
      <point x="303" y="444"/>
      <point x="309" y="440"/>
      <point x="313" y="434" type="curve"/>
      <point x="222" y="215" type="line"/>
      <point x="132" y="432" type="line"/>
      <point x="136" y="439"/>
      <point x="143" y="444"/>
      <point x="151" y="444" type="curve" smooth="yes"/>
      <point x="166" y="444"/>
      <point x="178" y="456"/>
      <point x="178" y="471" type="curve" smooth="yes"/>
      <point x="178" y="486"/>
      <point x="166" y="499"/>
      <point x="151" y="499" type="curve" smooth="yes"/>
      <point x="132" y="499"/>
      <point x="115" y="492"/>
      <point x="102" y="481" type="curve"/>
      <point x="88" y="492"/>
      <point x="71" y="499"/>
      <point x="52" y="499" type="curve" smooth="yes"/>
      <point x="37" y="499"/>
      <point x="25" y="486"/>
      <point x="25" y="471" type="curve" smooth="yes"/>
      <point x="25" y="456"/>
      <point x="37" y="444"/>
      <point x="52" y="444" type="curve" smooth="yes"/>
      <point x="64" y="444"/>
      <point x="74" y="434"/>
      <point x="74" y="422" type="curve" smooth="yes"/>
      <point x="74" y="278" type="line"/>
      <point x="61" y="278" type="line" smooth="yes"/>
      <point x="45" y="278"/>
      <point x="33" y="266"/>
      <point x="33" y="250" type="curve" smooth="yes"/>
      <point x="33" y="235"/>
      <point x="45" y="223"/>
      <point x="61" y="223" type="curve" smooth="yes"/>
      <point x="74" y="223" type="line"/>
      <point x="74" y="80" type="line" smooth="yes"/>
      <point x="74" y="68"/>
      <point x="64" y="58"/>
      <point x="52" y="58" type="curve" smooth="yes"/>
      <point x="37" y="58"/>
      <point x="25" y="46"/>
      <point x="25" y="30" type="curve" smooth="yes"/>
      <point x="25" y="15"/>
      <point x="37" y="3"/>
      <point x="52" y="3" type="curve" smooth="yes"/>
      <point x="71" y="3"/>
      <point x="88" y="10"/>
      <point x="102" y="21" type="curve"/>
      <point x="115" y="10"/>
      <point x="132" y="3"/>
      <point x="151" y="3" type="curve" smooth="yes"/>
      <point x="166" y="3"/>
      <point x="178" y="15"/>
      <point x="178" y="30" type="curve" smooth="yes"/>
      <point x="178" y="46"/>
      <point x="166" y="58"/>
      <point x="151" y="58" type="curve" smooth="yes"/>
      <point x="139" y="58"/>
      <point x="129" y="68"/>
      <point x="129" y="80" type="curve" smooth="yes"/>
      <point x="129" y="296" type="line"/>
      <point x="193" y="144" type="line"/>
      <point x="189" y="136"/>
      <point x="182" y="131"/>
      <point x="173" y="131" type="curve" smooth="yes"/>
      <point x="158" y="131"/>
      <point x="146" y="119"/>
      <point x="146" y="104" type="curve" smooth="yes"/>
      <point x="146" y="88"/>
      <point x="158" y="76"/>
      <point x="173" y="76" type="curve" smooth="yes"/>
      <point x="192" y="76"/>
      <point x="209" y="83"/>
      <point x="222" y="94" type="curve"/>
      <point x="236" y="83"/>
      <point x="253" y="76"/>
      <point x="272" y="76" type="curve" smooth="yes"/>
      <point x="287" y="76"/>
      <point x="299" y="88"/>
      <point x="299" y="104" type="curve" smooth="yes"/>
      <point x="299" y="119"/>
      <point x="287" y="131"/>
      <point x="272" y="131" type="curve" smooth="yes"/>
      <point x="263" y="131"/>
      <point x="256" y="136"/>
      <point x="252" y="144" type="curve"/>
      <point x="317" y="300" type="line"/>
      <point x="317" y="80" type="line" smooth="yes"/>
      <point x="317" y="68"/>
      <point x="308" y="58"/>
      <point x="296" y="58" type="curve" smooth="yes"/>
      <point x="280" y="58"/>
      <point x="268" y="46"/>
      <point x="268" y="30" type="curve" smooth="yes"/>
      <point x="268" y="15"/>
      <point x="280" y="3"/>
      <point x="296" y="3" type="curve" smooth="yes"/>
      <point x="314" y="3"/>
      <point x="331" y="10"/>
      <point x="345" y="21" type="curve"/>
      <point x="358" y="10"/>
      <point x="375" y="3"/>
      <point x="394" y="3" type="curve" smooth="yes"/>
      <point x="409" y="3"/>
      <point x="421" y="15"/>
      <point x="421" y="30" type="curve" smooth="yes"/>
      <point x="421" y="46"/>
      <point x="409" y="58"/>
      <point x="394" y="58" type="curve" smooth="yes"/>
    </contour>
  </outline>
</glyph>
<glyph name="n" format="1">
  <advance width="371"/>
  <unicode hex="006E"/>
  <note>
    n
  </note>
  <outline>
    <contour>
      <point x="307" y="58"/>
      <point x="297" y="68"/>
      <point x="297" y="80" type="curve"/>
      <point x="297" y="80"/>
      <point x="297" y="80"/>
      <point x="297" y="80" type="curve"/>
      <point x="297" y="223" type="line"/>
      <point x="319" y="223" type="line" smooth="yes"/>
      <point x="334" y="223"/>
      <point x="346" y="235"/>
      <point x="346" y="250" type="curve" smooth="yes"/>
      <point x="346" y="266"/>
      <point x="334" y="278"/>
      <point x="319" y="278" type="curve" smooth="yes"/>
      <point x="297" y="278" type="line"/>
      <point x="297" y="422" type="line" smooth="yes"/>
      <point x="297" y="434"/>
      <point x="307" y="444"/>
      <point x="319" y="444" type="curve" smooth="yes"/>
      <point x="334" y="444"/>
      <point x="346" y="456"/>
      <point x="346" y="471" type="curve" smooth="yes"/>
      <point x="346" y="486"/>
      <point x="334" y="499"/>
      <point x="319" y="499" type="curve" smooth="yes"/>
      <point x="300" y="499"/>
      <point x="283" y="492"/>
      <point x="270" y="481" type="curve"/>
      <point x="256" y="492"/>
      <point x="239" y="499"/>
      <point x="220" y="499" type="curve" smooth="yes"/>
      <point x="205" y="499"/>
      <point x="193" y="486"/>
      <point x="193" y="471" type="curve" smooth="yes"/>
      <point x="193" y="456"/>
      <point x="205" y="444"/>
      <point x="220" y="444" type="curve" smooth="yes"/>
      <point x="232" y="444"/>
      <point x="242" y="434"/>
      <point x="242" y="422" type="curve" smooth="yes"/>
      <point x="242" y="168" type="line"/>
      <point x="132" y="432" type="line"/>
      <point x="136" y="439"/>
      <point x="143" y="444"/>
      <point x="151" y="444" type="curve" smooth="yes"/>
      <point x="166" y="444"/>
      <point x="178" y="456"/>
      <point x="178" y="471" type="curve" smooth="yes"/>
      <point x="178" y="486"/>
      <point x="166" y="499"/>
      <point x="151" y="499" type="curve" smooth="yes"/>
      <point x="132" y="499"/>
      <point x="115" y="492"/>
      <point x="102" y="481" type="curve"/>
      <point x="88" y="492"/>
      <point x="71" y="499"/>
      <point x="52" y="499" type="curve" smooth="yes"/>
      <point x="37" y="499"/>
      <point x="25" y="486"/>
      <point x="25" y="471" type="curve" smooth="yes"/>
      <point x="25" y="456"/>
      <point x="37" y="444"/>
      <point x="52" y="444" type="curve" smooth="yes"/>
      <point x="64" y="444"/>
      <point x="74" y="434"/>
      <point x="74" y="422" type="curve" smooth="yes"/>
      <point x="74" y="278" type="line"/>
      <point x="52" y="278" type="line" smooth="yes"/>
      <point x="37" y="278"/>
      <point x="25" y="266"/>
      <point x="25" y="250" type="curve" smooth="yes"/>
      <point x="25" y="235"/>
      <point x="37" y="223"/>
      <point x="52" y="223" type="curve" smooth="yes"/>
      <point x="74" y="223" type="line"/>
      <point x="74" y="80" type="line" smooth="yes"/>
      <point x="74" y="68"/>
      <point x="64" y="58"/>
      <point x="52" y="58" type="curve" smooth="yes"/>
      <point x="37" y="58"/>
      <point x="25" y="46"/>
      <point x="25" y="30" type="curve" smooth="yes"/>
      <point x="25" y="15"/>
      <point x="37" y="3"/>
      <point x="52" y="3" type="curve" smooth="yes"/>
      <point x="71" y="3"/>
      <point x="88" y="10"/>
      <point x="102" y="21" type="curve"/>
      <point x="115" y="10"/>
      <point x="132" y="3"/>
      <point x="151" y="3" type="curve" smooth="yes"/>
      <point x="166" y="3"/>
      <point x="178" y="15"/>
      <point x="178" y="30" type="curve" smooth="yes"/>
      <point x="178" y="46"/>
      <point x="166" y="58"/>
      <point x="151" y="58" type="curve" smooth="yes"/>
      <point x="139" y="58"/>
      <point x="129" y="68"/>
      <point x="129" y="80" type="curve" smooth="yes"/>
      <point x="129" y="250" type="line"/>
      <point x="129" y="250"/>
      <point x="129" y="250"/>
      <point x="129" y="250" type="curve"/>
      <point x="129" y="251"/>
      <point x="129" y="251"/>
      <point x="129" y="251" type="curve"/>
      <point x="129" y="296" type="line"/>
      <point x="228" y="59" type="line"/>
      <point x="225" y="58"/>
      <point x="223" y="58"/>
      <point x="220" y="58" type="curve" smooth="yes"/>
      <point x="205" y="58"/>
      <point x="193" y="46"/>
      <point x="193" y="30" type="curve" smooth="yes"/>
      <point x="193" y="15"/>
      <point x="205" y="3"/>
      <point x="220" y="3" type="curve" smooth="yes"/>
      <point x="239" y="3"/>
      <point x="256" y="10"/>
      <point x="270" y="21" type="curve"/>
      <point x="283" y="10"/>
      <point x="300" y="3"/>
      <point x="319" y="3" type="curve" smooth="yes"/>
      <point x="334" y="3"/>
      <point x="346" y="15"/>
      <point x="346" y="30" type="curve" smooth="yes"/>
      <point x="346" y="46"/>
      <point x="334" y="58"/>
      <point x="319" y="58" type="curve" smooth="yes"/>
    </contour>
  </outline>
</glyph>
<glyph name="o" format="1">
  <advance width="380"/>
  <unicode hex="006F"/>
  <note>
    o
  </note>
  <outline>
    <contour>
      <point x="314" y="280" type="line"/>
      <point x="314" y="374" type="line" smooth="yes"/>
      <point x="314" y="442"/>
      <point x="258" y="498"/>
      <point x="190" y="498" type="curve" smooth="yes"/>
      <point x="122" y="498"/>
      <point x="66" y="442"/>
      <point x="66" y="374" type="curve" smooth="yes"/>
      <point x="66" y="278" type="line"/>
      <point x="52" y="278" type="line" smooth="yes"/>
      <point x="37" y="278"/>
      <point x="25" y="266"/>
      <point x="25" y="251" type="curve" smooth="yes"/>
      <point x="25" y="236"/>
      <point x="37" y="223"/>
      <point x="52" y="223" type="curve" smooth="yes"/>
      <point x="66" y="223" type="line"/>
      <point x="66" y="128" type="line" smooth="yes"/>
      <point x="66" y="60"/>
      <point x="122" y="4"/>
      <point x="190" y="4" type="curve" smooth="yes"/>
      <point x="258" y="4"/>
      <point x="314" y="60"/>
      <point x="314" y="128" type="curve" smooth="yes"/>
      <point x="314" y="225" type="line"/>
      <point x="327" y="225" type="line" smooth="yes"/>
      <point x="343" y="225"/>
      <point x="355" y="237"/>
      <point x="355" y="253" type="curve" smooth="yes"/>
      <point x="355" y="268"/>
      <point x="343" y="280"/>
      <point x="327" y="280" type="curve" smooth="yes"/>
    </contour>
    <contour>
      <point x="259" y="280" type="line"/>
      <point x="245" y="280" type="line" smooth="yes"/>
      <point x="230" y="280"/>
      <point x="218" y="268"/>
      <point x="218" y="253" type="curve" smooth="yes"/>
      <point x="218" y="237"/>
      <point x="230" y="225"/>
      <point x="245" y="225" type="curve" smooth="yes"/>
      <point x="259" y="225" type="line"/>
      <point x="259" y="128" type="line" smooth="yes"/>
      <point x="259" y="90"/>
      <point x="228" y="59"/>
      <point x="190" y="59" type="curve" smooth="yes"/>
      <point x="152" y="59"/>
      <point x="121" y="90"/>
      <point x="121" y="128" type="curve" smooth="yes"/>
      <point x="121" y="223" type="line"/>
      <point x="135" y="223" type="line" smooth="yes"/>
      <point x="150" y="223"/>
      <point x="162" y="236"/>
      <point x="162" y="251" type="curve" smooth="yes"/>
      <point x="162" y="266"/>
      <point x="150" y="278"/>
      <point x="135" y="278" type="curve" smooth="yes"/>
      <point x="121" y="278" type="line"/>
      <point x="121" y="374" type="line" smooth="yes"/>
      <point x="121" y="412"/>
      <point x="152" y="443"/>
      <point x="190" y="443" type="curve" smooth="yes"/>
      <point x="228" y="443"/>
      <point x="259" y="412"/>
      <point x="259" y="374" type="curve" smooth="yes"/>
    </contour>
  </outline>
</glyph>
<glyph name="r" format="1">
  <advance width="363"/>
  <unicode hex="0072"/>
  <note>
    r
  </note>
  <outline>
    <contour>
      <point x="298" y="58"/>
      <point x="288" y="68"/>
      <point x="288" y="80" type="curve" smooth="yes"/>
      <point x="288" y="202" type="line" smooth="yes"/>
      <point x="288" y="220"/>
      <point x="282" y="236"/>
      <point x="272" y="249" type="curve"/>
      <point x="302" y="271"/>
      <point x="322" y="307"/>
      <point x="322" y="348" type="curve"/>
      <point x="322" y="348"/>
      <point x="321" y="349"/>
      <point x="321" y="350" type="curve" smooth="yes"/>
      <point x="321" y="351"/>
      <point x="322" y="351"/>
      <point x="322" y="352" type="curve" smooth="yes"/>
      <point x="322" y="375" type="line" smooth="yes"/>
      <point x="322" y="443"/>
      <point x="266" y="499"/>
      <point x="198" y="499" type="curve" smooth="yes"/>
      <point x="166" y="499"/>
      <point x="137" y="486"/>
      <point x="115" y="466" type="curve"/>
      <point x="101" y="486"/>
      <point x="78" y="499"/>
      <point x="52" y="499" type="curve" smooth="yes"/>
      <point x="37" y="499"/>
      <point x="25" y="487"/>
      <point x="25" y="471" type="curve" smooth="yes"/>
      <point x="25" y="456"/>
      <point x="37" y="444"/>
      <point x="52" y="444" type="curve" smooth="yes"/>
      <point x="64" y="444"/>
      <point x="74" y="434"/>
      <point x="74" y="422" type="curve" smooth="yes"/>
      <point x="74" y="384" type="line"/>
      <point x="74" y="384"/>
      <point x="74" y="384"/>
      <point x="74" y="384" type="curve"/>
      <point x="74" y="279" type="line"/>
      <point x="61" y="279" type="line" smooth="yes"/>
      <point x="45" y="279"/>
      <point x="33" y="266"/>
      <point x="33" y="251" type="curve" smooth="yes"/>
      <point x="33" y="236"/>
      <point x="45" y="224"/>
      <point x="61" y="224" type="curve" smooth="yes"/>
      <point x="74" y="224" type="line"/>
      <point x="74" y="80" type="line" smooth="yes"/>
      <point x="74" y="68"/>
      <point x="64" y="58"/>
      <point x="52" y="58" type="curve" smooth="yes"/>
      <point x="37" y="58"/>
      <point x="25" y="45"/>
      <point x="25" y="30" type="curve" smooth="yes"/>
      <point x="25" y="15"/>
      <point x="37" y="3"/>
      <point x="52" y="3" type="curve" smooth="yes"/>
      <point x="71" y="3"/>
      <point x="88" y="10"/>
      <point x="102" y="21" type="curve"/>
      <point x="115" y="10"/>
      <point x="132" y="3"/>
      <point x="151" y="3" type="curve" smooth="yes"/>
      <point x="166" y="3"/>
      <point x="178" y="15"/>
      <point x="178" y="30" type="curve" smooth="yes"/>
      <point x="178" y="45"/>
      <point x="166" y="58"/>
      <point x="151" y="58" type="curve" smooth="yes"/>
      <point x="139" y="58"/>
      <point x="129" y="68"/>
      <point x="129" y="80" type="curve" smooth="yes"/>
      <point x="129" y="224" type="line"/>
      <point x="198" y="224" type="line" smooth="yes"/>
      <point x="201" y="224"/>
      <point x="204" y="224"/>
      <point x="207" y="225" type="curve"/>
      <point x="209" y="224"/>
      <point x="210" y="224"/>
      <point x="212" y="224" type="curve" smooth="yes"/>
      <point x="224" y="224"/>
      <point x="233" y="214"/>
      <point x="233" y="202" type="curve" smooth="yes"/>
      <point x="233" y="80" type="line" smooth="yes"/>
      <point x="233" y="37"/>
      <point x="268" y="3"/>
      <point x="310" y="3" type="curve" smooth="yes"/>
      <point x="325" y="3"/>
      <point x="338" y="15"/>
      <point x="338" y="30" type="curve" smooth="yes"/>
      <point x="338" y="45"/>
      <point x="325" y="58"/>
      <point x="310" y="58" type="curve" smooth="yes"/>
    </contour>
    <contour>
      <point x="129" y="352" type="line"/>
      <point x="129" y="352"/>
      <point x="129" y="352"/>
      <point x="129" y="352" type="curve"/>
      <point x="129" y="375" type="line" smooth="yes"/>
      <point x="129" y="413"/>
      <point x="160" y="444"/>
      <point x="198" y="444" type="curve" smooth="yes"/>
      <point x="236" y="444"/>
      <point x="267" y="413"/>
      <point x="267" y="375" type="curve" smooth="yes"/>
      <point x="267" y="352" type="line" smooth="yes"/>
      <point x="267" y="351"/>
      <point x="267" y="351"/>
      <point x="267" y="350" type="curve" smooth="yes"/>
      <point x="267" y="349"/>
      <point x="267" y="348"/>
      <point x="267" y="348" type="curve"/>
      <point x="267" y="310"/>
      <point x="236" y="279"/>
      <point x="198" y="279" type="curve" smooth="yes"/>
      <point x="129" y="279" type="line"/>
    </contour>
  </outline>
</glyph>
<glyph name="s" format="1">
  <advance width="322"/>
  <unicode hex="0073"/>
  <note>
    s
  </note>
  <outline>
    <contour>
      <point x="297" y="209"/>
      <point x="255" y="261"/>
      <point x="197" y="277" type="curve"/>
      <point x="198" y="279" type="line"/>
      <point x="204" y="294"/>
      <point x="196" y="311"/>
      <point x="181" y="316" type="curve"/>
      <point x="166" y="322"/>
      <point x="149" y="314"/>
      <point x="144" y="299" type="curve"/>
      <point x="139" y="286" type="line"/>
      <point x="107" y="296"/>
      <point x="83" y="325"/>
      <point x="83" y="361" type="curve" smooth="yes"/>
      <point x="83" y="403"/>
      <point x="118" y="438"/>
      <point x="160" y="439" type="curve"/>
      <point x="173" y="438"/>
      <point x="183" y="428"/>
      <point x="183" y="416" type="curve" smooth="yes"/>
      <point x="183" y="400"/>
      <point x="196" y="387"/>
      <point x="212" y="387" type="curve" smooth="yes"/>
      <point x="228" y="387"/>
      <point x="241" y="400"/>
      <point x="241" y="416" type="curve" smooth="yes"/>
      <point x="241" y="436"/>
      <point x="234" y="454"/>
      <point x="222" y="468" type="curve"/>
      <point x="234" y="482"/>
      <point x="241" y="500"/>
      <point x="241" y="520" type="curve" smooth="yes"/>
      <point x="241" y="536"/>
      <point x="228" y="549"/>
      <point x="212" y="549" type="curve" smooth="yes"/>
      <point x="196" y="549"/>
      <point x="183" y="536"/>
      <point x="183" y="520" type="curve" smooth="yes"/>
      <point x="183" y="507"/>
      <point x="173" y="497"/>
      <point x="160" y="497" type="curve" smooth="yes"/>
      <point x="160" y="497"/>
      <point x="159" y="496"/>
      <point x="159" y="496" type="curve" smooth="yes"/>
      <point x="85" y="495"/>
      <point x="25" y="435"/>
      <point x="25" y="361" type="curve" smooth="yes"/>
      <point x="25" y="300"/>
      <point x="65" y="250"/>
      <point x="119" y="232" type="curve"/>
      <point x="119" y="231" type="line"/>
      <point x="114" y="216"/>
      <point x="121" y="199"/>
      <point x="136" y="194" type="curve"/>
      <point x="140" y="193"/>
      <point x="143" y="192"/>
      <point x="146" y="192" type="curve" smooth="yes"/>
      <point x="158" y="192"/>
      <point x="169" y="200"/>
      <point x="174" y="211" type="curve"/>
      <point x="178" y="223" type="line"/>
      <point x="213" y="215"/>
      <point x="239" y="184"/>
      <point x="239" y="146" type="curve" smooth="yes"/>
      <point x="239" y="103"/>
      <point x="204" y="68"/>
      <point x="161" y="68" type="curve" smooth="yes"/>
      <point x="161" y="68" type="line" smooth="yes"/>
      <point x="160" y="68"/>
      <point x="159" y="68"/>
      <point x="158" y="68" type="curve" smooth="yes"/>
      <point x="158" y="68" type="line" smooth="yes"/>
      <point x="152" y="68"/>
      <point x="146" y="69"/>
      <point x="141" y="73" type="curve" smooth="yes"/>
      <point x="136" y="77"/>
      <point x="133" y="82"/>
      <point x="132" y="88" type="curve"/>
      <point x="131" y="104"/>
      <point x="116" y="116"/>
      <point x="100" y="114" type="curve" smooth="yes"/>
      <point x="85" y="112"/>
      <point x="73" y="98"/>
      <point x="75" y="82" type="curve" smooth="yes"/>
      <point x="77" y="63"/>
      <point x="86" y="46"/>
      <point x="99" y="32" type="curve"/>
      <point x="89" y="17"/>
      <point x="84" y="-2"/>
      <point x="86" y="-21" type="curve" smooth="yes"/>
      <point x="88" y="-36"/>
      <point x="101" y="-47"/>
      <point x="115" y="-47" type="curve" smooth="yes"/>
      <point x="116" y="-47"/>
      <point x="117" y="-47"/>
      <point x="118" y="-47" type="curve"/>
      <point x="134" y="-45"/>
      <point x="146" y="-31"/>
      <point x="144" y="-15" type="curve"/>
      <point x="143" y="-2"/>
      <point x="152" y="9"/>
      <point x="164" y="11" type="curve"/>
      <point x="164" y="11" type="line"/>
      <point x="165" y="11"/>
      <point x="165" y="11"/>
      <point x="165" y="11" type="curve"/>
      <point x="238" y="13"/>
      <point x="297" y="73"/>
      <point x="297" y="146" type="curve" smooth="yes"/>
    </contour>
  </outline>
</glyph>
<glyph name="t" format="1">
  <advance width="373"/>
  <unicode hex="0074"/>
  <note>
    t
  </note>
  <outline>
    <contour>
      <point x="227" y="499"/>
      <point x="203" y="488"/>
      <point x="186" y="471" type="curve"/>
      <point x="169" y="488"/>
      <point x="146" y="499"/>
      <point x="119" y="499" type="curve" smooth="yes"/>
      <point x="67" y="499"/>
      <point x="25" y="456"/>
      <point x="25" y="404" type="curve" smooth="yes"/>
      <point x="25" y="389"/>
      <point x="37" y="377"/>
      <point x="52" y="377" type="curve" smooth="yes"/>
      <point x="68" y="377"/>
      <point x="80" y="389"/>
      <point x="80" y="404" type="curve" smooth="yes"/>
      <point x="80" y="426"/>
      <point x="98" y="444"/>
      <point x="119" y="444" type="curve" smooth="yes"/>
      <point x="141" y="444"/>
      <point x="159" y="426"/>
      <point x="159" y="404" type="curve" smooth="yes"/>
      <point x="159" y="278" type="line"/>
      <point x="145" y="278" type="line" smooth="yes"/>
      <point x="130" y="278"/>
      <point x="118" y="266"/>
      <point x="118" y="250" type="curve" smooth="yes"/>
      <point x="118" y="235"/>
      <point x="130" y="223"/>
      <point x="145" y="223" type="curve" smooth="yes"/>
      <point x="159" y="223" type="line"/>
      <point x="159" y="80" type="line" smooth="yes"/>
      <point x="159" y="68"/>
      <point x="149" y="58"/>
      <point x="137" y="58" type="curve" smooth="yes"/>
      <point x="122" y="58"/>
      <point x="110" y="46"/>
      <point x="110" y="30" type="curve" smooth="yes"/>
      <point x="110" y="15"/>
      <point x="122" y="3"/>
      <point x="137" y="3" type="curve" smooth="yes"/>
      <point x="156" y="3"/>
      <point x="173" y="10"/>
      <point x="186" y="21" type="curve"/>
      <point x="200" y="10"/>
      <point x="217" y="3"/>
      <point x="236" y="3" type="curve" smooth="yes"/>
      <point x="251" y="3"/>
      <point x="263" y="15"/>
      <point x="263" y="30" type="curve" smooth="yes"/>
      <point x="263" y="46"/>
      <point x="251" y="58"/>
      <point x="236" y="58" type="curve" smooth="yes"/>
      <point x="224" y="58"/>
      <point x="214" y="68"/>
      <point x="214" y="80" type="curve" smooth="yes"/>
      <point x="214" y="223" type="line"/>
      <point x="227" y="223" type="line" smooth="yes"/>
      <point x="243" y="223"/>
      <point x="255" y="235"/>
      <point x="255" y="250" type="curve" smooth="yes"/>
      <point x="255" y="266"/>
      <point x="243" y="278"/>
      <point x="227" y="278" type="curve" smooth="yes"/>
      <point x="214" y="278" type="line"/>
      <point x="214" y="404" type="line" smooth="yes"/>
      <point x="214" y="426"/>
      <point x="232" y="444"/>
      <point x="253" y="444" type="curve" smooth="yes"/>
      <point x="275" y="444"/>
      <point x="293" y="426"/>
      <point x="293" y="404" type="curve" smooth="yes"/>
      <point x="293" y="389"/>
      <point x="305" y="377"/>
      <point x="320" y="377" type="curve" smooth="yes"/>
      <point x="335" y="377"/>
      <point x="348" y="389"/>
      <point x="348" y="404" type="curve" smooth="yes"/>
      <point x="348" y="456"/>
      <point x="305" y="499"/>
      <point x="253" y="499" type="curve" smooth="yes"/>
    </contour>
  </outline>
</glyph>
<glyph name="v" format="1">
  <advance width="391"/>
  <unicode hex="0076"/>
  <note>
    v
  </note>
  <outline>
    <contour>
      <point x="320" y="499"/>
      <point x="303" y="492"/>
      <point x="290" y="481" type="curve"/>
      <point x="276" y="492"/>
      <point x="259" y="499"/>
      <point x="241" y="499" type="curve" smooth="yes"/>
      <point x="225" y="499"/>
      <point x="213" y="487"/>
      <point x="213" y="471" type="curve" smooth="yes"/>
      <point x="213" y="456"/>
      <point x="225" y="444"/>
      <point x="241" y="444" type="curve" smooth="yes"/>
      <point x="252" y="444"/>
      <point x="262" y="434"/>
      <point x="262" y="422" type="curve" smooth="yes"/>
      <point x="262" y="420"/>
      <point x="263" y="418"/>
      <point x="263" y="417" type="curve"/>
      <point x="227" y="278" type="line"/>
      <point x="223" y="278" type="line" smooth="yes"/>
      <point x="209" y="278"/>
      <point x="198" y="267"/>
      <point x="196" y="254" type="curve"/>
      <point x="194" y="267"/>
      <point x="183" y="278"/>
      <point x="169" y="278" type="curve" smooth="yes"/>
      <point x="165" y="278" type="line"/>
      <point x="128" y="417" type="line"/>
      <point x="128" y="419"/>
      <point x="129" y="420"/>
      <point x="129" y="422" type="curve" smooth="yes"/>
      <point x="129" y="434"/>
      <point x="139" y="444"/>
      <point x="151" y="444" type="curve" smooth="yes"/>
      <point x="166" y="444"/>
      <point x="178" y="456"/>
      <point x="178" y="471" type="curve" smooth="yes"/>
      <point x="178" y="487"/>
      <point x="166" y="499"/>
      <point x="151" y="499" type="curve" smooth="yes"/>
      <point x="132" y="499"/>
      <point x="115" y="492"/>
      <point x="102" y="481" type="curve"/>
      <point x="88" y="492"/>
      <point x="71" y="499"/>
      <point x="52" y="499" type="curve" smooth="yes"/>
      <point x="37" y="499"/>
      <point x="25" y="487"/>
      <point x="25" y="471" type="curve" smooth="yes"/>
      <point x="25" y="456"/>
      <point x="37" y="444"/>
      <point x="52" y="444" type="curve" smooth="yes"/>
      <point x="58" y="444"/>
      <point x="62" y="442"/>
      <point x="66" y="439" type="curve"/>
      <point x="66" y="438"/>
      <point x="66" y="437"/>
      <point x="66" y="436" type="curve"/>
      <point x="109" y="276" type="line"/>
      <point x="99" y="271"/>
      <point x="92" y="262"/>
      <point x="92" y="251" type="curve" smooth="yes"/>
      <point x="92" y="235"/>
      <point x="105" y="223"/>
      <point x="120" y="223" type="curve" smooth="yes"/>
      <point x="123" y="223" type="line"/>
      <point x="164" y="67" type="line"/>
      <point x="160" y="62"/>
      <point x="154" y="58"/>
      <point x="147" y="58" type="curve" smooth="yes"/>
      <point x="131" y="58"/>
      <point x="119" y="45"/>
      <point x="119" y="30" type="curve" smooth="yes"/>
      <point x="119" y="15"/>
      <point x="131" y="3"/>
      <point x="147" y="3" type="curve" smooth="yes"/>
      <point x="165" y="3"/>
      <point x="182" y="10"/>
      <point x="196" y="21" type="curve"/>
      <point x="209" y="10"/>
      <point x="226" y="3"/>
      <point x="245" y="3" type="curve" smooth="yes"/>
      <point x="260" y="3"/>
      <point x="273" y="15"/>
      <point x="273" y="30" type="curve" smooth="yes"/>
      <point x="273" y="45"/>
      <point x="260" y="58"/>
      <point x="245" y="58" type="curve" smooth="yes"/>
      <point x="238" y="58"/>
      <point x="231" y="62"/>
      <point x="228" y="67" type="curve"/>
      <point x="269" y="223" type="line"/>
      <point x="272" y="223" type="line" smooth="yes"/>
      <point x="287" y="223"/>
      <point x="299" y="235"/>
      <point x="299" y="251" type="curve" smooth="yes"/>
      <point x="299" y="262"/>
      <point x="293" y="271"/>
      <point x="283" y="276" type="curve"/>
      <point x="325" y="436" type="line"/>
      <point x="326" y="437"/>
      <point x="325" y="438"/>
      <point x="325" y="439" type="curve"/>
      <point x="329" y="442"/>
      <point x="334" y="444"/>
      <point x="339" y="444" type="curve" smooth="yes"/>
      <point x="354" y="444"/>
      <point x="366" y="456"/>
      <point x="366" y="471" type="curve" smooth="yes"/>
      <point x="366" y="487"/>
      <point x="354" y="499"/>
      <point x="339" y="499" type="curve" smooth="yes"/>
    </contour>
    <contour>
      <point x="197" y="237"/>
      <point x="203" y="229"/>
      <point x="212" y="225" type="curve"/>
      <point x="196" y="162" type="line"/>
      <point x="179" y="225" type="line"/>
      <point x="188" y="229"/>
      <point x="195" y="237"/>
      <point x="196" y="247" type="curve"/>
    </contour>
  </outline>
</glyph>
<glyph name="w" format="1">
  <advance width="597"/>
  <unicode hex="0077"/>
  <note>
    w
  </note>
  <outline>
    <contour>
      <point x="526" y="499"/>
      <point x="509" y="492"/>
      <point x="495" y="481" type="curve"/>
      <point x="482" y="492"/>
      <point x="465" y="499"/>
      <point x="446" y="499" type="curve" smooth="yes"/>
      <point x="431" y="499"/>
      <point x="419" y="487"/>
      <point x="419" y="471" type="curve" smooth="yes"/>
      <point x="419" y="456"/>
      <point x="431" y="444"/>
      <point x="446" y="444" type="curve" smooth="yes"/>
      <point x="458" y="444"/>
      <point x="468" y="434"/>
      <point x="468" y="422" type="curve" smooth="yes"/>
      <point x="468" y="420"/>
      <point x="469" y="418"/>
      <point x="469" y="417" type="curve"/>
      <point x="432" y="278" type="line"/>
      <point x="428" y="278" type="line" smooth="yes"/>
      <point x="413" y="278"/>
      <point x="401" y="266"/>
      <point x="401" y="251" type="curve" smooth="yes"/>
      <point x="401" y="239"/>
      <point x="408" y="229"/>
      <point x="418" y="225" type="curve"/>
      <point x="402" y="162" type="line"/>
      <point x="330" y="433" type="line"/>
      <point x="333" y="439"/>
      <point x="340" y="444"/>
      <point x="348" y="444" type="curve" smooth="yes"/>
      <point x="363" y="444"/>
      <point x="375" y="456"/>
      <point x="375" y="471" type="curve" smooth="yes"/>
      <point x="375" y="487"/>
      <point x="363" y="499"/>
      <point x="348" y="499" type="curve" smooth="yes"/>
      <point x="329" y="499"/>
      <point x="312" y="492"/>
      <point x="299" y="481" type="curve"/>
      <point x="285" y="492"/>
      <point x="268" y="499"/>
      <point x="249" y="499" type="curve" smooth="yes"/>
      <point x="234" y="499"/>
      <point x="222" y="487"/>
      <point x="222" y="471" type="curve" smooth="yes"/>
      <point x="222" y="456"/>
      <point x="234" y="444"/>
      <point x="249" y="444" type="curve" smooth="yes"/>
      <point x="257" y="444"/>
      <point x="264" y="439"/>
      <point x="268" y="433" type="curve"/>
      <point x="196" y="162" type="line"/>
      <point x="179" y="225" type="line"/>
      <point x="189" y="229"/>
      <point x="196" y="239"/>
      <point x="196" y="251" type="curve" smooth="yes"/>
      <point x="196" y="266"/>
      <point x="184" y="278"/>
      <point x="169" y="278" type="curve" smooth="yes"/>
      <point x="165" y="278" type="line"/>
      <point x="128" y="417" type="line"/>
      <point x="128" y="419"/>
      <point x="129" y="420"/>
      <point x="129" y="422" type="curve" smooth="yes"/>
      <point x="129" y="434"/>
      <point x="139" y="444"/>
      <point x="151" y="444" type="curve" smooth="yes"/>
      <point x="166" y="444"/>
      <point x="178" y="456"/>
      <point x="178" y="471" type="curve" smooth="yes"/>
      <point x="178" y="487"/>
      <point x="166" y="499"/>
      <point x="151" y="499" type="curve" smooth="yes"/>
      <point x="132" y="499"/>
      <point x="115" y="492"/>
      <point x="102" y="481" type="curve"/>
      <point x="88" y="492"/>
      <point x="71" y="499"/>
      <point x="52" y="499" type="curve" smooth="yes"/>
      <point x="37" y="499"/>
      <point x="25" y="487"/>
      <point x="25" y="471" type="curve" smooth="yes"/>
      <point x="25" y="456"/>
      <point x="37" y="444"/>
      <point x="52" y="444" type="curve" smooth="yes"/>
      <point x="58" y="444"/>
      <point x="62" y="442"/>
      <point x="66" y="439" type="curve"/>
      <point x="66" y="438"/>
      <point x="66" y="437"/>
      <point x="66" y="436" type="curve"/>
      <point x="109" y="276" type="line"/>
      <point x="99" y="271"/>
      <point x="92" y="262"/>
      <point x="92" y="251" type="curve" smooth="yes"/>
      <point x="92" y="235"/>
      <point x="105" y="223"/>
      <point x="120" y="223" type="curve" smooth="yes"/>
      <point x="123" y="223" type="line"/>
      <point x="164" y="67" type="line"/>
      <point x="160" y="62"/>
      <point x="154" y="58"/>
      <point x="147" y="58" type="curve" smooth="yes"/>
      <point x="131" y="58"/>
      <point x="119" y="45"/>
      <point x="119" y="30" type="curve" smooth="yes"/>
      <point x="119" y="15"/>
      <point x="131" y="3"/>
      <point x="147" y="3" type="curve" smooth="yes"/>
      <point x="165" y="3"/>
      <point x="182" y="10"/>
      <point x="196" y="21" type="curve"/>
      <point x="209" y="10"/>
      <point x="226" y="3"/>
      <point x="245" y="3" type="curve" smooth="yes"/>
      <point x="260" y="3"/>
      <point x="273" y="15"/>
      <point x="273" y="30" type="curve" smooth="yes"/>
      <point x="273" y="45"/>
      <point x="260" y="58"/>
      <point x="245" y="58" type="curve" smooth="yes"/>
      <point x="238" y="58"/>
      <point x="231" y="62"/>
      <point x="228" y="67" type="curve"/>
      <point x="299" y="336" type="line"/>
      <point x="370" y="67" type="line"/>
      <point x="366" y="62"/>
      <point x="360" y="58"/>
      <point x="352" y="58" type="curve" smooth="yes"/>
      <point x="337" y="58"/>
      <point x="325" y="45"/>
      <point x="325" y="30" type="curve" smooth="yes"/>
      <point x="325" y="15"/>
      <point x="337" y="3"/>
      <point x="352" y="3" type="curve" smooth="yes"/>
      <point x="371" y="3"/>
      <point x="388" y="10"/>
      <point x="402" y="21" type="curve"/>
      <point x="415" y="10"/>
      <point x="432" y="3"/>
      <point x="451" y="3" type="curve" smooth="yes"/>
      <point x="466" y="3"/>
      <point x="478" y="15"/>
      <point x="478" y="30" type="curve" smooth="yes"/>
      <point x="478" y="45"/>
      <point x="466" y="58"/>
      <point x="451" y="58" type="curve" smooth="yes"/>
      <point x="443" y="58"/>
      <point x="437" y="62"/>
      <point x="433" y="67" type="curve"/>
      <point x="475" y="223" type="line"/>
      <point x="478" y="223" type="line" smooth="yes"/>
      <point x="493" y="223"/>
      <point x="505" y="235"/>
      <point x="505" y="251" type="curve" smooth="yes"/>
      <point x="505" y="262"/>
      <point x="498" y="271"/>
      <point x="488" y="276" type="curve"/>
      <point x="531" y="436" type="line"/>
      <point x="531" y="437"/>
      <point x="531" y="438"/>
      <point x="531" y="439" type="curve"/>
      <point x="535" y="442"/>
      <point x="539" y="444"/>
      <point x="545" y="444" type="curve" smooth="yes"/>
      <point x="560" y="444"/>
      <point x="572" y="456"/>
      <point x="572" y="471" type="curve" smooth="yes"/>
      <point x="572" y="487"/>
      <point x="560" y="499"/>
      <point x="545" y="499" type="curve" smooth="yes"/>
    </contour>
  </outline>
</glyph>
<glyph name="x" format="1">
  <advance width="359"/>
  <unicode hex="0078"/>
  <note>
    x
  </note>
  <outline>
    <contour>
      <point x="298" y="57"/>
      <point x="291" y="61"/>
      <point x="287" y="68" type="curve"/>
      <point x="269" y="109" type="line"/>
      <point x="211" y="251" type="line"/>
      <point x="269" y="393" type="line"/>
      <point x="287" y="433" type="line"/>
      <point x="291" y="440"/>
      <point x="298" y="445"/>
      <point x="306" y="445" type="curve" smooth="yes"/>
      <point x="321" y="445"/>
      <point x="334" y="457"/>
      <point x="334" y="472" type="curve" smooth="yes"/>
      <point x="334" y="487"/>
      <point x="321" y="500"/>
      <point x="306" y="500" type="curve" smooth="yes"/>
      <point x="288" y="500"/>
      <point x="271" y="493"/>
      <point x="257" y="481" type="curve"/>
      <point x="244" y="493"/>
      <point x="226" y="500"/>
      <point x="208" y="500" type="curve" smooth="yes"/>
      <point x="193" y="500"/>
      <point x="180" y="487"/>
      <point x="180" y="472" type="curve" smooth="yes"/>
      <point x="180" y="457"/>
      <point x="193" y="445"/>
      <point x="208" y="445" type="curve" smooth="yes"/>
      <point x="215" y="445"/>
      <point x="222" y="441"/>
      <point x="226" y="434" type="curve"/>
      <point x="180" y="320" type="line"/>
      <point x="133" y="435" type="line"/>
      <point x="137" y="441"/>
      <point x="143" y="445"/>
      <point x="151" y="445" type="curve" smooth="yes"/>
      <point x="166" y="445"/>
      <point x="178" y="457"/>
      <point x="178" y="472" type="curve" smooth="yes"/>
      <point x="178" y="487"/>
      <point x="166" y="500"/>
      <point x="151" y="500" type="curve" smooth="yes"/>
      <point x="132" y="500"/>
      <point x="115" y="493"/>
      <point x="102" y="481" type="curve"/>
      <point x="88" y="493"/>
      <point x="71" y="500"/>
      <point x="52" y="500" type="curve" smooth="yes"/>
      <point x="37" y="500"/>
      <point x="25" y="487"/>
      <point x="25" y="472" type="curve" smooth="yes"/>
      <point x="25" y="457"/>
      <point x="37" y="445"/>
      <point x="52" y="445" type="curve" smooth="yes"/>
      <point x="61" y="445"/>
      <point x="68" y="440"/>
      <point x="71" y="434" type="curve"/>
      <point x="90" y="392" type="line"/>
      <point x="90" y="392"/>
      <point x="91" y="392"/>
      <point x="91" y="391" type="curve"/>
      <point x="149" y="251" type="line"/>
      <point x="91" y="110" type="line"/>
      <point x="91" y="110"/>
      <point x="90" y="110"/>
      <point x="90" y="109" type="curve"/>
      <point x="72" y="69" type="line"/>
      <point x="68" y="61"/>
      <point x="61" y="57"/>
      <point x="52" y="57" type="curve" smooth="yes"/>
      <point x="37" y="57"/>
      <point x="25" y="45"/>
      <point x="25" y="29" type="curve" smooth="yes"/>
      <point x="25" y="14"/>
      <point x="37" y="2"/>
      <point x="52" y="2" type="curve" smooth="yes"/>
      <point x="71" y="2"/>
      <point x="88" y="9"/>
      <point x="102" y="21" type="curve"/>
      <point x="115" y="9"/>
      <point x="132" y="2"/>
      <point x="151" y="2" type="curve" smooth="yes"/>
      <point x="166" y="2"/>
      <point x="178" y="14"/>
      <point x="178" y="29" type="curve" smooth="yes"/>
      <point x="178" y="45"/>
      <point x="166" y="57"/>
      <point x="151" y="57" type="curve" smooth="yes"/>
      <point x="143" y="57"/>
      <point x="137" y="61"/>
      <point x="133" y="67" type="curve"/>
      <point x="180" y="182" type="line"/>
      <point x="226" y="67" type="line"/>
      <point x="222" y="61"/>
      <point x="215" y="57"/>
      <point x="208" y="57" type="curve" smooth="yes"/>
      <point x="193" y="57"/>
      <point x="180" y="45"/>
      <point x="180" y="29" type="curve" smooth="yes"/>
      <point x="180" y="14"/>
      <point x="193" y="2"/>
      <point x="208" y="2" type="curve" smooth="yes"/>
      <point x="226" y="2"/>
      <point x="243" y="9"/>
      <point x="257" y="21" type="curve"/>
      <point x="271" y="9"/>
      <point x="288" y="2"/>
      <point x="306" y="2" type="curve" smooth="yes"/>
      <point x="321" y="2"/>
      <point x="334" y="14"/>
      <point x="334" y="29" type="curve" smooth="yes"/>
      <point x="334" y="45"/>
      <point x="321" y="57"/>
      <point x="306" y="57" type="curve" smooth="yes"/>
    </contour>
  </outline>
</glyph>
<glyph name="y" format="1">
  <advance width="359"/>
  <unicode hex="0079"/>
  <note>
    y
  </note>
  <outline>
    <contour>
      <point x="288" y="499"/>
      <point x="271" y="492"/>
      <point x="257" y="480" type="curve"/>
      <point x="244" y="492"/>
      <point x="226" y="499"/>
      <point x="208" y="499" type="curve" smooth="yes"/>
      <point x="193" y="499"/>
      <point x="180" y="486"/>
      <point x="180" y="471" type="curve" smooth="yes"/>
      <point x="180" y="456"/>
      <point x="193" y="444"/>
      <point x="208" y="444" type="curve" smooth="yes"/>
      <point x="215" y="444"/>
      <point x="222" y="440"/>
      <point x="226" y="433" type="curve"/>
      <point x="180" y="319" type="line"/>
      <point x="133" y="434" type="line"/>
      <point x="137" y="440"/>
      <point x="143" y="444"/>
      <point x="151" y="444" type="curve" smooth="yes"/>
      <point x="166" y="444"/>
      <point x="178" y="456"/>
      <point x="178" y="471" type="curve" smooth="yes"/>
      <point x="178" y="486"/>
      <point x="166" y="499"/>
      <point x="151" y="499" type="curve" smooth="yes"/>
      <point x="132" y="499"/>
      <point x="115" y="492"/>
      <point x="102" y="480" type="curve"/>
      <point x="88" y="492"/>
      <point x="71" y="499"/>
      <point x="52" y="499" type="curve" smooth="yes"/>
      <point x="37" y="499"/>
      <point x="25" y="486"/>
      <point x="25" y="471" type="curve" smooth="yes"/>
      <point x="25" y="456"/>
      <point x="37" y="444"/>
      <point x="52" y="444" type="curve" smooth="yes"/>
      <point x="61" y="444"/>
      <point x="68" y="439"/>
      <point x="71" y="433" type="curve"/>
      <point x="90" y="391" type="line"/>
      <point x="90" y="391"/>
      <point x="91" y="391"/>
      <point x="91" y="390" type="curve"/>
      <point x="137" y="278" type="line"/>
      <point x="123" y="277"/>
      <point x="111" y="265"/>
      <point x="111" y="250" type="curve" smooth="yes"/>
      <point x="111" y="235"/>
      <point x="123" y="223"/>
      <point x="138" y="223" type="curve" smooth="yes"/>
      <point x="152" y="223" type="line"/>
      <point x="152" y="81" type="line"/>
      <point x="152" y="81"/>
      <point x="152" y="81"/>
      <point x="152" y="80" type="curve"/>
      <point x="152" y="80"/>
      <point x="152" y="80"/>
      <point x="152" y="80" type="curve"/>
      <point x="152" y="68"/>
      <point x="142" y="58"/>
      <point x="130" y="58" type="curve" smooth="yes"/>
      <point x="115" y="58"/>
      <point x="103" y="46"/>
      <point x="103" y="30" type="curve" smooth="yes"/>
      <point x="103" y="15"/>
      <point x="115" y="3"/>
      <point x="130" y="3" type="curve" smooth="yes"/>
      <point x="149" y="3"/>
      <point x="166" y="10"/>
      <point x="180" y="21" type="curve"/>
      <point x="193" y="10"/>
      <point x="210" y="3"/>
      <point x="229" y="3" type="curve" smooth="yes"/>
      <point x="244" y="3"/>
      <point x="256" y="15"/>
      <point x="256" y="30" type="curve" smooth="yes"/>
      <point x="256" y="46"/>
      <point x="244" y="58"/>
      <point x="229" y="58" type="curve" smooth="yes"/>
      <point x="217" y="58"/>
      <point x="207" y="68"/>
      <point x="207" y="80" type="curve"/>
      <point x="207" y="80"/>
      <point x="207" y="80"/>
      <point x="207" y="80" type="curve"/>
      <point x="207" y="81"/>
      <point x="207" y="81"/>
      <point x="207" y="81" type="curve"/>
      <point x="207" y="223" type="line"/>
      <point x="221" y="223" type="line" smooth="yes"/>
      <point x="236" y="223"/>
      <point x="248" y="235"/>
      <point x="248" y="250" type="curve" smooth="yes"/>
      <point x="248" y="265"/>
      <point x="237" y="277"/>
      <point x="222" y="278" type="curve"/>
      <point x="269" y="392" type="line"/>
      <point x="287" y="432" type="line"/>
      <point x="291" y="439"/>
      <point x="298" y="444"/>
      <point x="306" y="444" type="curve" smooth="yes"/>
      <point x="321" y="444"/>
      <point x="334" y="456"/>
      <point x="334" y="471" type="curve" smooth="yes"/>
      <point x="334" y="486"/>
      <point x="321" y="499"/>
      <point x="306" y="499" type="curve" smooth="yes"/>
    </contour>
  </outline>
</glyph>
<glyph name="z" format="1">
  <advance width="367"/>
  <unicode hex="007A"/>
  <note>
    z
  </note>
  <outline>
    <contour>
      <point x="342" y="105"/>
      <point x="330" y="118"/>
      <point x="315" y="118" type="curve" smooth="yes"/>
      <point x="300" y="118"/>
      <point x="287" y="105"/>
      <point x="287" y="90" type="curve" smooth="yes"/>
      <point x="287" y="74"/>
      <point x="274" y="60"/>
      <point x="258" y="60" type="curve" smooth="yes"/>
      <point x="101" y="60" type="line"/>
      <point x="188" y="204" type="line"/>
      <point x="223" y="204" type="line" smooth="yes"/>
      <point x="239" y="204"/>
      <point x="251" y="217"/>
      <point x="251" y="232" type="curve" smooth="yes"/>
      <point x="251" y="247"/>
      <point x="239" y="259"/>
      <point x="223" y="259" type="curve" smooth="yes"/>
      <point x="221" y="259" type="line"/>
      <point x="338" y="455" type="line"/>
      <point x="344" y="463"/>
      <point x="344" y="474"/>
      <point x="339" y="482" type="curve"/>
      <point x="334" y="491"/>
      <point x="325" y="496"/>
      <point x="315" y="496" type="curve" smooth="yes"/>
      <point x="110" y="496" type="line"/>
      <point x="110" y="496" type="line" smooth="yes"/>
      <point x="93" y="496"/>
      <point x="80" y="510"/>
      <point x="80" y="526" type="curve" smooth="yes"/>
      <point x="80" y="541"/>
      <point x="68" y="553"/>
      <point x="52" y="553" type="curve" smooth="yes"/>
      <point x="37" y="553"/>
      <point x="25" y="541"/>
      <point x="25" y="526" type="curve" smooth="yes"/>
      <point x="25" y="504"/>
      <point x="33" y="484"/>
      <point x="47" y="469" type="curve"/>
      <point x="33" y="454"/>
      <point x="25" y="433"/>
      <point x="25" y="411" type="curve" smooth="yes"/>
      <point x="25" y="396"/>
      <point x="37" y="384"/>
      <point x="52" y="384" type="curve" smooth="yes"/>
      <point x="68" y="384"/>
      <point x="80" y="396"/>
      <point x="80" y="411" type="curve" smooth="yes"/>
      <point x="80" y="428"/>
      <point x="93" y="441"/>
      <point x="110" y="441" type="curve"/>
      <point x="110" y="441"/>
      <point x="110" y="441"/>
      <point x="110" y="441" type="curve"/>
      <point x="266" y="441" type="line"/>
      <point x="157" y="259" type="line"/>
      <point x="120" y="259" type="line" smooth="yes"/>
      <point x="105" y="259"/>
      <point x="92" y="247"/>
      <point x="92" y="232" type="curve" smooth="yes"/>
      <point x="92" y="217"/>
      <point x="105" y="204"/>
      <point x="120" y="204" type="curve" smooth="yes"/>
      <point x="124" y="204" type="line"/>
      <point x="29" y="47" type="line" smooth="yes"/>
      <point x="24" y="39"/>
      <point x="24" y="28"/>
      <point x="29" y="19" type="curve"/>
      <point x="33" y="11"/>
      <point x="43" y="6"/>
      <point x="52" y="6" type="curve" smooth="yes"/>
      <point x="258" y="6" type="line" smooth="yes"/>
      <point x="274" y="6"/>
      <point x="287" y="-8"/>
      <point x="287" y="-24" type="curve" smooth="yes"/>
      <point x="287" y="-39"/>
      <point x="300" y="-52"/>
      <point x="315" y="-52" type="curve" smooth="yes"/>
      <point x="330" y="-52"/>
      <point x="342" y="-39"/>
      <point x="342" y="-24" type="curve" smooth="yes"/>
      <point x="342" y="-2"/>
      <point x="334" y="18"/>
      <point x="320" y="33" type="curve"/>
      <point x="334" y="48"/>
      <point x="342" y="68"/>
      <point x="342" y="90" type="curve" smooth="yes"/>
    </contour>
  </outline>
</glyph>
<glyph name=".notdef" format="1">
  <advance width="500"/>
  <note>
    .notdef
  </note>
  <outline>
    <contour>
      <point x="184" y="333"/>
      <point x="188" y="327"/>
      <point x="194" y="325" type="curve"/>
      <point x="183" y="285" type="line"/>
      <point x="173" y="325" type="line"/>
      <point x="179" y="327"/>
      <point x="183" y="333"/>
      <point x="183" y="339" type="curve"/>
    </contour>
    <contour>
      <point x="289" y="29"/>
      <point x="281" y="37"/>
      <point x="272" y="37" type="curve" smooth="yes"/>
      <point x="270" y="37"/>
      <point x="268" y="38"/>
      <point x="268" y="40" type="curve" smooth="yes"/>
      <point x="268" y="61" type="line"/>
      <point x="268" y="61"/>
      <point x="268" y="61"/>
      <point x="268" y="61" type="curve"/>
      <point x="268" y="97" type="line"/>
      <point x="312" y="97" type="line" smooth="yes"/>
      <point x="322" y="97"/>
      <point x="329" y="105"/>
      <point x="329" y="115" type="curve" smooth="yes"/>
      <point x="329" y="124"/>
      <point x="322" y="132"/>
      <point x="312" y="132" type="curve" smooth="yes"/>
      <point x="268" y="132" type="line"/>
      <point x="268" y="168" type="line" smooth="yes"/>
      <point x="268" y="182"/>
      <point x="279" y="193"/>
      <point x="292" y="193" type="curve" smooth="yes"/>
      <point x="306" y="193"/>
      <point x="317" y="182"/>
      <point x="317" y="168" type="curve" smooth="yes"/>
      <point x="317" y="159"/>
      <point x="324" y="151"/>
      <point x="334" y="151" type="curve" smooth="yes"/>
      <point x="344" y="151"/>
      <point x="352" y="159"/>
      <point x="352" y="168" type="curve" smooth="yes"/>
      <point x="352" y="201"/>
      <point x="325" y="228"/>
      <point x="292" y="228" type="curve" smooth="yes"/>
      <point x="274" y="228"/>
      <point x="259" y="220"/>
      <point x="248" y="207" type="curve"/>
      <point x="239" y="214"/>
      <point x="229" y="218"/>
      <point x="217" y="218" type="curve" smooth="yes"/>
      <point x="217" y="218"/>
      <point x="217" y="218"/>
      <point x="216" y="218" type="curve" smooth="yes"/>
      <point x="216" y="218"/>
      <point x="215" y="218"/>
      <point x="215" y="218" type="curve" smooth="yes"/>
      <point x="210" y="218"/>
      <point x="206" y="221"/>
      <point x="204" y="224" type="curve"/>
      <point x="230" y="324" type="line"/>
      <point x="232" y="324" type="line" smooth="yes"/>
      <point x="242" y="324"/>
      <point x="250" y="332"/>
      <point x="250" y="341" type="curve" smooth="yes"/>
      <point x="250" y="349"/>
      <point x="245" y="355"/>
      <point x="239" y="357" type="curve"/>
      <point x="264" y="450" type="line"/>
      <point x="264" y="451"/>
      <point x="264" y="451"/>
      <point x="264" y="451" type="curve"/>
      <point x="269" y="459"/>
      <point x="277" y="464"/>
      <point x="286" y="464" type="curve" smooth="yes"/>
      <point x="300" y="464"/>
      <point x="312" y="452"/>
      <point x="312" y="438" type="curve" smooth="yes"/>
      <point x="312" y="358" type="line"/>
      <point x="303" y="358" type="line" smooth="yes"/>
      <point x="293" y="358"/>
      <point x="285" y="350"/>
      <point x="285" y="340" type="curve" smooth="yes"/>
      <point x="285" y="330"/>
      <point x="293" y="322"/>
      <point x="303" y="322" type="curve" smooth="yes"/>
      <point x="312" y="322" type="line"/>
      <point x="312" y="293" type="line" smooth="yes"/>
      <point x="312" y="285"/>
      <point x="305" y="279"/>
      <point x="298" y="279" type="curve" smooth="yes"/>
      <point x="288" y="279"/>
      <point x="280" y="271"/>
      <point x="280" y="261" type="curve" smooth="yes"/>
      <point x="280" y="251"/>
      <point x="288" y="243"/>
      <point x="298" y="243" type="curve" smooth="yes"/>
      <point x="310" y="243"/>
      <point x="321" y="248"/>
      <point x="329" y="255" type="curve"/>
      <point x="338" y="248"/>
      <point x="349" y="243"/>
      <point x="361" y="243" type="curve" smooth="yes"/>
      <point x="370" y="243"/>
      <point x="378" y="251"/>
      <point x="378" y="261" type="curve" smooth="yes"/>
      <point x="378" y="271"/>
      <point x="370" y="279"/>
      <point x="361" y="279" type="curve" smooth="yes"/>
      <point x="353" y="279"/>
      <point x="347" y="285"/>
      <point x="347" y="293" type="curve" smooth="yes"/>
      <point x="347" y="322" type="line"/>
      <point x="355" y="322" type="line" smooth="yes"/>
      <point x="365" y="322"/>
      <point x="373" y="330"/>
      <point x="373" y="340" type="curve" smooth="yes"/>
      <point x="373" y="350"/>
      <point x="365" y="358"/>
      <point x="355" y="358" type="curve" smooth="yes"/>
      <point x="347" y="358" type="line"/>
      <point x="347" y="438" type="line" smooth="yes"/>
      <point x="347" y="452"/>
      <point x="358" y="464"/>
      <point x="372" y="464" type="curve" smooth="yes"/>
      <point x="386" y="464"/>
      <point x="397" y="452"/>
      <point x="397" y="438" type="curve" smooth="yes"/>
      <point x="397" y="429"/>
      <point x="405" y="421"/>
      <point x="415" y="421" type="curve" smooth="yes"/>
      <point x="424" y="421"/>
      <point x="432" y="429"/>
      <point x="432" y="438" type="curve" smooth="yes"/>
      <point x="432" y="472"/>
      <point x="405" y="499"/>
      <point x="372" y="499" type="curve" smooth="yes"/>
      <point x="355" y="499"/>
      <point x="340" y="492"/>
      <point x="329" y="481" type="curve"/>
      <point x="318" y="492"/>
      <point x="303" y="499"/>
      <point x="286" y="499" type="curve" smooth="yes"/>
      <point x="272" y="499"/>
      <point x="258" y="494"/>
      <point x="248" y="485" type="curve"/>
      <point x="239" y="494"/>
      <point x="226" y="500"/>
      <point x="212" y="500" type="curve" smooth="yes"/>
      <point x="202" y="500"/>
      <point x="194" y="492"/>
      <point x="194" y="483" type="curve" smooth="yes"/>
      <point x="194" y="473"/>
      <point x="202" y="465"/>
      <point x="212" y="465" type="curve" smooth="yes"/>
      <point x="220" y="465"/>
      <point x="226" y="459"/>
      <point x="226" y="451" type="curve" smooth="yes"/>
      <point x="226" y="450"/>
      <point x="226" y="449"/>
      <point x="227" y="448" type="curve"/>
      <point x="203" y="359" type="line"/>
      <point x="201" y="359" type="line" smooth="yes"/>
      <point x="192" y="359"/>
      <point x="184" y="352"/>
      <point x="183" y="343" type="curve"/>
      <point x="182" y="352"/>
      <point x="175" y="359"/>
      <point x="166" y="359" type="curve" smooth="yes"/>
      <point x="164" y="359" type="line"/>
      <point x="140" y="448" type="line"/>
      <point x="140" y="449"/>
      <point x="141" y="450"/>
      <point x="141" y="451" type="curve" smooth="yes"/>
      <point x="141" y="459"/>
      <point x="147" y="465"/>
      <point x="155" y="465" type="curve" smooth="yes"/>
      <point x="164" y="465"/>
      <point x="172" y="473"/>
      <point x="172" y="483" type="curve" smooth="yes"/>
      <point x="172" y="492"/>
      <point x="164" y="500"/>
      <point x="155" y="500" type="curve" smooth="yes"/>
      <point x="143" y="500"/>
      <point x="132" y="496"/>
      <point x="123" y="489" type="curve"/>
      <point x="115" y="496"/>
      <point x="104" y="500"/>
      <point x="92" y="500" type="curve" smooth="yes"/>
      <point x="82" y="500"/>
      <point x="74" y="492"/>
      <point x="74" y="483" type="curve" smooth="yes"/>
      <point x="74" y="473"/>
      <point x="82" y="465"/>
      <point x="92" y="465" type="curve" smooth="yes"/>
      <point x="95" y="465"/>
      <point x="98" y="464"/>
      <point x="100" y="462" type="curve" smooth="yes"/>
      <point x="101" y="461"/>
      <point x="100" y="460"/>
      <point x="101" y="460" type="curve"/>
      <point x="128" y="357" type="line"/>
      <point x="121" y="355"/>
      <point x="117" y="349"/>
      <point x="117" y="341" type="curve" smooth="yes"/>
      <point x="117" y="332"/>
      <point x="125" y="324"/>
      <point x="135" y="324" type="curve" smooth="yes"/>
      <point x="137" y="324" type="line"/>
      <point x="163" y="224" type="line"/>
      <point x="161" y="221"/>
      <point x="157" y="218"/>
      <point x="152" y="218" type="curve" smooth="yes"/>
      <point x="142" y="218"/>
      <point x="134" y="210"/>
      <point x="134" y="200" type="curve" smooth="yes"/>
      <point x="134" y="191"/>
      <point x="142" y="183"/>
      <point x="152" y="183" type="curve" smooth="yes"/>
      <point x="164" y="183"/>
      <point x="175" y="187"/>
      <point x="183" y="194" type="curve"/>
      <point x="192" y="187"/>
      <point x="203" y="183"/>
      <point x="215" y="183" type="curve"/>
      <point x="215" y="183"/>
      <point x="216" y="183"/>
      <point x="216" y="183" type="curve"/>
      <point x="217" y="183"/>
      <point x="217" y="183"/>
      <point x="217" y="183" type="curve"/>
      <point x="225" y="183"/>
      <point x="231" y="177"/>
      <point x="231" y="169" type="curve" smooth="yes"/>
      <point x="231" y="132" type="line"/>
      <point x="215" y="132" type="line" smooth="yes"/>
      <point x="205" y="132"/>
      <point x="197" y="124"/>
      <point x="197" y="115" type="curve" smooth="yes"/>
      <point x="197" y="105"/>
      <point x="205" y="97"/>
      <point x="215" y="97" type="curve" smooth="yes"/>
      <point x="233" y="97" type="line"/>
      <point x="233" y="67" type="line"/>
      <point x="233" y="67"/>
      <point x="233" y="67"/>
      <point x="233" y="67" type="curve"/>
      <point x="233" y="40" type="line" smooth="yes"/>
      <point x="233" y="38"/>
      <point x="231" y="37"/>
      <point x="229" y="37" type="curve" smooth="yes"/>
      <point x="219" y="37"/>
      <point x="211" y="29"/>
      <point x="211" y="19" type="curve" smooth="yes"/>
      <point x="211" y="9"/>
      <point x="219" y="2"/>
      <point x="229" y="2" type="curve" smooth="yes"/>
      <point x="237" y="2"/>
      <point x="244" y="4"/>
      <point x="250" y="8" type="curve"/>
      <point x="256" y="4"/>
      <point x="264" y="2"/>
      <point x="272" y="2" type="curve" smooth="yes"/>
      <point x="281" y="2"/>
      <point x="289" y="9"/>
      <point x="289" y="19" type="curve" smooth="yes"/>
    </contour>
  </outline>
</glyph>
